<?xml version="1.0" standalone="no"?><!DOCTYPE svg PUBLIC "-//W3C//DTD SVG 1.1//EN" "http://www.w3.org/Graphics/SVG/1.1/DTD/svg11.dtd"><svg t="1571023717360" class="icon" viewBox="0 0 1024 1024" version="1.1" xmlns="http://www.w3.org/2000/svg" p-id="3328" xmlns:xlink="http://www.w3.org/1999/xlink" width="32" height="32"><defs><style type="text/css"></style></defs><path d="M844 112H180a68.07 68.07 0 0 0-68 68v664a68.07 68.07 0 0 0 68 68h664a68.07 68.07 0 0 0 68-68V180a68.07 68.07 0 0 0-68-68z m-4 728H184V184h656z" p-id="3329" fill="#bfbfbf"></path><path d="M302 544h178v178a8 8 0 0 0 8 8h48a8 8 0 0 0 8-8V544h178a8 8 0 0 0 8-8v-48a8 8 0 0 0-8-8H544V302a8 8 0 0 0-8-8h-48a8 8 0 0 0-8 8v178H302a8 8 0 0 0-8 8v48a8 8 0 0 0 8 8z" p-id="3330" fill="#555555"></path></svg>