<?xml version="1.0" standalone="no"?>
<!DOCTYPE svg PUBLIC "-//W3C//DTD SVG 1.1//EN" "http://www.w3.org/Graphics/SVG/1.1/DTD/svg11.dtd" >
<!--
2013-9-30: Created.
-->
<svg>
<metadata>
Created by iconfont
</metadata>
<defs>

<font id="iconfont" horiz-adv-x="1024" >
  <font-face
    font-family="iconfont"
    font-weight="500"
    font-stretch="normal"
    units-per-em="1024"
    ascent="896"
    descent="-128"
  />
    <missing-glyph />
    
    <glyph glyph-name="alipay" unicode="&#58891;" d="M230.4 319.48800000000006c-12.288-9.728-25.088-24.064-28.672-41.984-5.12-24.576-1.024-55.296 22.528-79.872 28.672-29.184 72.704-37.376 91.648-38.912 51.2-3.584 105.984 22.016 147.456 50.688 16.384 11.264 44.032 34.304 70.144 69.632-59.392 30.72-133.632 64.512-212.48 61.44-40.448-1.536-69.632-9.728-90.624-20.992z m752.64-135.68c26.112 61.44 40.96 129.024 40.96 200.192C1024 666.112 794.112 896 512 896S0 666.112 0 384s229.888-512 512-512c170.496 0 321.536 83.968 414.72 211.968-88.064 43.52-232.96 115.712-322.56 159.232-42.496-48.64-105.472-97.28-176.64-118.272-44.544-13.312-84.992-18.432-126.976-9.728-41.984 8.704-72.704 28.16-90.624 47.616-9.216 10.24-19.456 22.528-27.136 37.888 0.512-1.024 1.024-2.048 1.024-3.072 0 0-4.608 7.68-7.68 19.456-1.536 6.144-3.072 11.776-3.584 17.92-0.512 4.096-0.512 8.704 0 12.8-0.512 7.68 0 15.872 1.536 24.064 4.096 20.48 12.8 44.032 35.328 65.536 49.152 48.128 114.688 50.688 148.992 50.176 50.176-0.512 138.24-22.528 211.968-48.64 20.48 43.52 33.792 90.112 41.984 121.344h-307.2v33.28h157.696v66.56H272.384V593.9200000000001h190.464V660.48c0 9.216 2.048 16.384 16.384 16.384h74.752V593.9200000000001h207.36v-33.28h-207.36v-66.56h165.888s-16.896-92.672-68.608-184.32c115.2-40.96 278.016-104.448 331.776-125.952z"  horiz-adv-x="1024" />

    
    <glyph glyph-name="wechatpay" unicode="&#58934;" d="M390.21952 264.90752c-61.26464-34.01984-70.35136 19.09888-70.35136 19.09888l-76.78208 178.46656c-29.54368 84.80512 25.56928 38.23744 25.56928 38.23744s47.2896-35.63392 83.17952-57.34784c35.87072-21.71392 76.75776-6.3744 76.75776-6.3744l501.9648 230.7776C837.94688 782.5472 684.96256 857.6 511.76576 857.6 229.11104 857.6 0 657.86752 0 411.47136c0-141.72544 75.8656-267.8656 194.0352-349.62176l-21.31072-122.01856c0 0-10.38848-35.6224 25.61536-19.10016 24.53376 11.26528 87.0784 51.63392 124.30976 76.20224 58.53056-20.31616 122.2976-31.5968 189.14432-31.5968 282.63168 0 511.79008 199.73248 511.79008 446.13376 0 71.36896-19.31008 138.76864-53.51552 198.59456C810.14144 514.2208 438.15808 291.48288 390.21952 264.90752L390.21952 264.90752 390.21952 264.90752zM390.21952 264.90752"  horiz-adv-x="1024" />

    
    <glyph glyph-name="weixin" unicode="&#58915;" d="M512 894.104C229.452 894.104 0 666.548 0 384s229.452-510.104 512-510.104S1022.104 101.452 1022.104 384 794.548 894.104 512 894.104z m-91.022-629.57c-26.548 0-49.304 5.688-75.852 11.377l-75.852-37.926 22.756 66.37c-54.993 37.926-87.23 87.23-87.23 147.912 0 104.296 98.607 185.837 218.074 185.837 108.089 0 201.007-64.474 219.97-153.6-7.585 0-13.274 1.896-20.859 1.896-104.296 0-185.837-77.748-185.837-172.563 0-15.17 1.896-30.34 7.585-45.511-7.585-3.793-15.17-3.793-22.755-3.793z m322.37-77.749l17.067-54.992-58.785 34.133c-22.756-5.689-43.615-11.378-66.37-11.378-104.297 0-185.838 70.163-185.838 157.393S530.963 471.23 635.26 471.23c98.608 0 185.837-70.163 185.837-159.29 0-47.407-32.237-91.021-77.748-125.155zM318.578 516.74c0-17.066 13.274-30.34 30.34-30.34s30.341 13.274 30.341 30.34-13.274 30.341-30.34 30.341-30.341-13.274-30.341-30.34z m235.14-159.288c0-13.274 11.378-24.652 24.652-24.652 13.274 0 24.652 11.378 24.652 24.652 0 13.274-11.378 24.652-24.652 24.652-13.274 1.896-24.651-9.482-24.651-24.652z m-81.54 159.289c0-17.067 13.274-30.341 30.34-30.341 17.067 0 30.341 13.274 30.341 30.34 0 17.067-13.274 30.341-30.34 30.341-17.067 0-30.341-13.274-30.341-30.34zM675.08 357.45c0-13.273 11.378-24.651 24.652-24.651 13.274 0 24.652 11.378 24.652 24.652 0 13.274-11.378 24.652-24.652 24.652-13.274 1.896-24.652-9.482-24.652-24.652z"  horiz-adv-x="1024" />

    
    <glyph glyph-name="bus1" unicode="&#58963;" d="M179.2 225.8944v51.2h670.9248v-51.2zM602.3424 432.0512a25.6 25.6 0 0 0 36.5312-35.84L485.632 239.872a25.6 25.6 0 1 0-36.5568 35.84l153.2928 156.3136zM892.9792 576.768a25.6 25.6 0 0 0 51.2 0v-101.6832a25.6 25.6 0 1 0-51.2 0V576.768zM79.8208 576.768a25.6 25.6 0 1 0 51.2 0v-101.6832a25.6 25.6 0 0 0-51.2 0V576.768zM349.3632-99.3792a106.9056 106.9056 0 1 0 0 213.8368 106.9056 106.9056 0 0 0 0-213.8368z m0 51.2a55.7056 55.7056 0 1 1 0 111.4368 55.7056 55.7056 0 0 1 0-111.4368zM674.6368-99.3792a106.9056 106.9056 0 1 0 0 213.8368 106.9056 106.9056 0 0 0 0-213.8368z m0 51.2a55.7056 55.7056 0 1 1 0 111.4368 55.7056 55.7056 0 0 1 0-111.4368zM457.7792 739.3792a27.1104 27.1104 0 0 1 0-54.1952h108.4416a27.1104 27.1104 0 0 1 0 54.1952h-108.4416z m0 54.2208h108.4416a81.3056 81.3056 0 0 0 0-162.6368h-108.4416a81.3056 81.3056 0 0 0 0 162.6368zM437.632-21.1456v51.2h140.8768v-51.2zM388.0192 691.2l8.5248 51.2H207.8208C177.8688 742.4 153.6 718.1312 153.6 688.1792v-650.5216c0-29.952 24.2688-54.2208 54.2208-54.2208h62.3104v51.2H207.8208A3.0208 3.0208 0 0 0 204.8 37.632V688.1792C204.8 689.8432 206.1568 691.2 207.8208 691.2h180.1984z m0 0l8.5248 51.2H207.8208C177.8688 742.4 153.6 718.1312 153.6 688.1792v-650.5216c0-29.952 24.2688-54.2208 54.2208-54.2208h62.3104v51.2H207.8208A3.0208 3.0208 0 0 0 204.8 37.632V688.1792C204.8 689.8432 206.1568 691.2 207.8208 691.2h180.1984z m249.6 0h166.528c1.664 0 2.9952-1.3568 2.9952-3.0208v-650.5216a3.0208 3.0208 0 0 0-2.9952-3.0208H745.472v-51.2h58.6752c29.952 0 54.1952 24.2688 54.1952 54.2208V688.1792c0 29.952-24.2688 54.2208-54.1952 54.2208h-174.336l7.7824-51.2zM629.76 742.4h174.336c29.952 0 54.2208-24.2688 54.2208-54.2208v-650.5216c0-29.952-24.2688-54.2208-54.1952-54.2208H745.472v51.2h58.6752a3.0208 3.0208 0 0 1 2.9952 3.0208V688.1792A3.0208 3.0208 0 0 1 804.1472 691.2h-166.5536l-7.808 51.2z m-36.608-758.9632h-166.8096 166.8352z m0 0h-166.8096 166.8352zM764.3392 34.6368v-51.2h39.808c29.952 0 54.1952 24.2688 54.1952 54.2208V688.1792c0 29.952-24.2688 54.2208-54.1952 54.2208h-180.6592l15.9232-51.2h164.736c1.664 0 2.9952-1.3568 2.9952-3.0208v-650.5216a3.0208 3.0208 0 0 0-2.9952-3.0208h-39.808z m-236.3904 0h-166.528A3.0208 3.0208 0 0 0 358.4 37.632V688.1792c0 1.664 1.3568 3.0208 3.0208 3.0208h58.6496V742.4h-58.6496C331.4688 742.4 307.2 718.1312 307.2 688.1792v-650.5216c0-29.952 24.2688-54.2208 54.2208-54.2208h174.336l-7.808 51.2z m7.808-51.2h-174.336A54.2208 54.2208 0 0 0 307.2 37.632V688.1792C307.2 718.1312 331.4688 742.4 361.4208 742.4h58.6496v-51.2h-58.6496a3.0208 3.0208 0 0 1-3.0208-3.0208v-650.5216c0-1.664 1.3568-3.0208 3.0208-3.0208h166.528l7.808-51.2zM572.3648 742.4h166.8352-166.8352z m0 0h166.8352-166.8352z"  horiz-adv-x="1024" />

    
    <glyph glyph-name="luxian" unicode="&#58955;" d="M1008.274286 753.737143L890.514286 871.314286a54.857143 54.857143 0 0 1-75.154286 0l-117.577143-117.76a53.028571 53.028571 0 0 1 0-75.154286 53.028571 53.028571 0 0 1 75.154286 0l28.708571 28.708571v-585.142857a117.394286 117.394286 0 1 0-234.605714 0V630.674286a224.365714 224.365714 0 0 1-448.548571 0V62.171429L91.428571 90.148571a53.211429 53.211429 0 0 1-75.702857-75.337142l117.76-117.577143a53.211429 53.211429 0 0 1 75.154286 0l117.577143 117.76a53.211429 53.211429 0 0 1-75.154286 75.154285l-25.965714-26.148571v566.857143a118.125714 118.125714 0 0 0 236.068571 0v-508.16a223.634286 223.634286 0 0 1 447.085715 0V703.817143L932.571429 678.582857a53.211429 53.211429 0 0 1 75.154285 75.154286z"  horiz-adv-x="1024" />

    
    <glyph glyph-name="bus" unicode="&#59024;" d="M96 711.68V128a96 96 0 0 1 96-96v-64a64 64 0 0 1 64-64h64a64 64 0 0 1 64 64v64h256v-64a64 64 0 0 1 64-64h64a64 64 0 0 1 64 64v64a96 96 0 0 1 96 96V711.68c0 203.2-832 203.2-832 0z m192-576A88 88 0 1 0 376 224 88 88 0 0 0 288 136z m448 0A88 88 0 1 0 824 224 88 88 0 0 0 736 136zM832 480H192V640a64 64 0 0 0 64 64h512a64 64 0 0 0 64-64z"  horiz-adv-x="1024" />

    
    <glyph glyph-name="clearup" unicode="&#58957;" d="M895.398771 628.177056 671.950695 628.177056 671.950695 795.761855c0 46.261745-37.501958 83.792903-83.790889 83.792903l-167.583792 0c-46.287924 0-83.79391-37.531157-83.79391-83.792903l0-167.584799-223.445056 0c-61.698102 0-111.723535-50.024426-111.723535-111.723535l0-55.860257c0-41.398553 22.522722-77.540227 55.981082-96.841965 0.190299-56.371748-0.120825-280.654522-0.120825-377.979786 3.818059-112.787799 111.723535-111.723535 111.723535-111.723535l307.238966 0 0 0.872958 20.968111 0c2.225187-0.568883 4.557103-0.872958 6.961514-0.872958s4.736326 0.304075 6.961514 0.872958l181.59341 0c2.225187-0.568883 4.557103-0.872958 6.961514-0.872958s4.735319 0.304075 6.960507 0.872958l132.69366 0c0 0 107.902455-1.066278 111.721521 111.532229 0 97.144027-0.310117 320.985791-0.119818 377.298133 33.45836 19.301738 55.983096 55.443412 55.983096 96.842972L1007.1213 516.453521C1007.122306 578.15263 957.096873 628.177056 895.398771 628.177056zM811.604862-69.328556l-83.790889 0L727.813973 153.355305c0 15.43837-12.494276 27.929625-27.930632 27.929625-15.43837 0-27.932646-12.491255-27.932646-27.929625l0-222.683861-139.65316 0L532.297535 153.355305c0 15.43837-12.491255 27.929625-27.930632 27.929625-15.43837 0-27.929625-12.491255-27.929625-27.929625l0-223.44707c0 0-69.151976 0-139.654167 0L336.783111 153.355305c0 15.43837-12.491255 27.929625-27.930632 27.929625-15.43837 0-27.929625-12.491255-27.929625-27.929625l0-223.44707-83.79391 0c-47.459923 0-84.064758 31.259351-83.790889 83.792903 0.351398 71.180823 0.136935 263.033253 0.040275 335.168591l781.981174 0c-0.097667-72.050761-0.311123-263.506483 0.040275-334.540303C895.670627-38.122569 859.066799-69.328556 811.604862-69.328556zM951.260036 460.593264c0-30.849554-25.01171-55.860257-55.860257-55.860257L113.337047 404.733007c-30.849554 0-55.862271 25.01171-55.862271 55.860257L57.474777 516.453521c0 30.849554 25.013724 55.863278 55.862271 55.863278l279.308334 0 0 167.583792c0 46.259732 37.502965 83.792903 83.790889 83.792903l55.860257 0c46.287924 0 83.792903-37.533171 83.792903-83.792903l0-167.583792 279.308334 0c30.849554 0 55.860257-25.013724 55.860257-55.863278L951.258022 460.593264z"  horiz-adv-x="1024" />

    
    <glyph glyph-name="edit" unicode="&#58913;" d="M883.685 317.91200000000003c-19.027 0-34.422-15.412-34.422-34.422v-151.454c0-55.768-45.381-101.149-101.149-101.149h-486.179c-55.768 0-101.149 45.381-101.149 101.149v486.18c0 55.768 45.381 101.149 101.149 101.149h148.312c19.027 0 34.422 15.412 34.422 34.422s-15.396 34.422-34.422 34.422h-148.312c-93.72 0-169.993-76.257-169.993-169.993v-486.18c0-93.72 76.273-169.993 169.993-169.993h486.18c93.72 0 169.993 76.273 169.993 169.993v151.454c0 19.01-15.396 34.421-34.422 34.421zM340.091 440.357l-9.345-199.709c-0.437-9.681 3.194-19.11 10.051-25.951 6.455-6.471 15.228-10.085 24.338-10.085 0.538 0 1.075 0.017 1.613 0.034l199.709 9.362c8.572 0.404 16.673 3.983 22.724 10.051l304.992 305.01c56.542 56.524 48.91 156.127-16.975 222.046-65.919 65.853-165.522 73.501-222.03 16.975l-305.026-305.01c-6.051-6.051-9.648-14.169-10.051-22.724zM408.229 423.818l295.614 295.597c29.212 29.195 86.29 21.346 124.68-16.993 38.39-38.406 46.154-95.501 16.975-124.68l-295.582-295.58-148.647-6.975 6.959 148.631z"  horiz-adv-x="1024" />

    
    <glyph glyph-name="save1" unicode="&#58903;" d="M218.843 687.532c-4.55-2.434-7.941-5.825-10.375-10.375-3.3-6.171-4.468-12.218-4.468-32.074v-522.166c0-19.856 1.168-25.903 4.468-32.074 2.434-4.55 5.825-7.941 10.375-10.375 6.171-3.3 12.218-4.468 32.074-4.468h522.166c19.856 0 25.903 1.168 32.074 4.468 4.55 2.434 7.941 5.825 10.375 10.375 3.3 6.171 4.468 12.218 4.468 32.074V538.8240000000001c0 12.479-0.295 16.284-1.164 20.053-0.62 2.694-1.514 4.85-2.98 7.195-2.05 3.279-4.533 6.178-13.357 15.002L709.074 674.5c-8.824 8.824-11.723 11.307-15.002 13.358-2.344 1.465-4.5 2.359-7.195 2.98-3.769 0.868-7.574 1.163-20.053 1.163H250.917c-19.856 0-25.903-1.168-32.074-4.468zM250.917 752h415.907c16.624 0 24.466-0.608 33.529-2.696 9.186-2.117 17.54-5.578 25.533-10.576 7.885-4.932 13.86-10.047 25.615-21.802l93.425-93.425c11.755-11.756 16.87-17.73 21.802-25.615 4.998-7.993 8.459-16.347 10.576-25.533 2.088-9.063 2.696-16.905 2.696-33.53v-415.906c0-28.914-2.975-44.318-11.56-60.37-8.025-15.006-19.98-26.962-34.987-34.987-16.052-8.585-31.456-11.56-60.37-11.56H250.917c-28.914 0-44.318 2.975-60.37 11.56-15.006 8.025-26.962 19.98-34.987 34.987-8.585 16.052-11.56 31.456-11.56 60.37V645.083c0 28.914 2.975 44.318 11.56 60.37 8.025 15.006 19.98 26.962 34.987 34.987 16.052 8.585 31.456 11.56 60.37 11.56zM674 692.525h60v-199.686c0-30.316-3.854-46.832-14.731-63.661-9.743-15.074-23.834-26.734-41.15-34.397C659.975 386.75 642.757 384 608.723 384H415.277c-34.034 0-51.252 2.751-69.396 10.78-17.316 7.664-31.407 19.324-41.15 34.398C293.854 446.008 290 462.523 290 492.839V692.12h60v-199.28c0-11.255 0.63-18.6 1.75-23.393 0.7-3.004 1.507-4.814 3.373-7.7 3.212-4.971 8.132-9.042 15.04-12.099 9.385-4.153 18.738-5.648 45.114-5.648h193.446c26.376 0 35.73 1.495 45.115 5.648 6.907 3.057 11.827 7.128 15.04 12.098 1.865 2.887 2.672 4.697 3.373 7.7 1.118 4.794 1.749 12.139 1.749 23.393V692.525z"  horiz-adv-x="1024" />

    
    <glyph glyph-name="add1" unicode="&#58954;" d="M864 416l-320 0 0 320C544 755.2 531.2 768 512 768S480 755.2 480 736l0-320-320 0C140.8 416 128 403.2 128 384s12.8-32 32-32l320 0 0-320C480 12.8 492.8 0 512 0s32 12.8 32 32l0 320 320 0C883.2 352 896 364.8 896 384S883.2 416 864 416z"  horiz-adv-x="1024" />

    
    <glyph glyph-name="clear" unicode="&#58933;" d="M987.428571 627.809524h-950.857142a36.571429 36.571429 0 0 0 0 73.142857H243.809524V822.857143a73.142857 73.142857 0 0 0 73.142857 73.142857h390.095238a73.142857 73.142857 0 0 0 73.142857-73.142857v-121.904762h207.238095a36.571429 36.571429 0 0 0 0-73.142857zM707.047619 774.095238a48.761905 48.761905 0 0 1-48.761905 48.761905H365.714286a48.761905 48.761905 0 0 1-48.761905-48.761905v-73.142857h390.095238V774.095238zM341.333333 79.238095v390.095238a36.571429 36.571429 0 0 0 73.142857 0v-390.095238a36.571429 36.571429 0 0 0-73.142857 0z m268.190477 0v390.095238a36.571429 36.571429 0 0 0 73.142857 0v-390.095238a36.571429 36.571429 0 0 0-73.142857 0zM158.47619 579.047619a36.254476 36.254476 0 0 0 34.133334-24.380952H195.047619v-560.761905a48.761905 48.761905 0 0 1 48.761905-48.761905h536.380952a48.761905 48.761905 0 0 1 48.761905 48.761905V554.666667h2.438095a36.059429 36.059429 0 0 0 68.266667 0h2.438095v-609.52381a73.142857 73.142857 0 0 0-73.142857-73.142857H195.047619a73.142857 73.142857 0 0 0-73.142857 73.142857V554.666667h2.438095a36.254476 36.254476 0 0 0 34.133333 24.380952z"  horiz-adv-x="1024" />

    
    <glyph glyph-name="traffic" unicode="&#58881;" d="M426.665984 599.721984c0-46.292992 39.041024-85.334016 85.334016-85.334016s85.334016 39.041024 85.334016 85.334016S558.292992 685.056 512 685.056s-85.334016-39.041024-85.334016-85.334016zM426.665984 375.46598400000005c0-46.292992 39.041024-85.334016 85.334016-85.334016s85.334016 39.041024 85.334016 85.334016S558.292992 460.8 512 460.8s-85.334016-39.041024-85.334016-85.334016zM426.665984 151.20998399999996c0-46.292992 39.041024-85.334016 85.334016-85.334016s85.334016 39.041024 85.334016 85.334016C597.334016 197.502976 558.292992 236.54399999999998 512 236.54399999999998s-85.334016-39.041024-85.334016-85.334016zM256 568.3199999999999v-387.753984c0-159.75424 114.432-289.943552 255.401984-290.816h1.792c140.82048 1.011712 254.574592 130.840576 254.806016 290.816V568.3199999999999c0 160.385024-114.817024 290.816-256 290.816S256 728.705024 256 568.3199999999999z m426.665984 0v-387.753984c-0.139264-106.819584-76.208128-193.449984-170.24-193.878016-94.337024 0.19456-171.094016 87.148544-171.094016 193.878016V568.3199999999999c0 106.924032 76.544 193.878016 170.665984 193.878016s170.668032-86.953984 170.668032-193.878016z"  horiz-adv-x="1024" />

    
    <glyph glyph-name="ruler" unicode="&#58932;" d="M700.006985 763.509128a67.302111 67.302111 0 0 1 0-96.726464 70.22829 70.22829 0 0 1 97.539292 0 67.302111 67.302111 0 0 1 0 96.726464 70.390856 70.390856 0 0 1-97.539292 0z m63.40054-61.774884a21.296079 21.296079 0 0 0-29.424353 0 18.532465 18.532465 0 0 0 0 26.823305 21.296079 21.296079 0 0 0 29.424353 0 18.532465 18.532465 0 0 0 0-26.823305zM1030.502619 656.215907L803.886331 876.654707a69.090332 69.090332 0 0 1-95.751071 0L20.15812 206.884902a66.164153 66.164153 0 0 1 0-95.100809L246.611843-108.65470700000003a69.090332 69.090332 0 0 1 95.751072 0l688.139704 669.769805a66.164153 66.164153 0 0 1 0 95.100809z m-33.976186-60.14923l-41.291634-40.153675-90.38641 89.085887a24.384823 24.384823 0 1 1-34.301318-34.789014L920.28322 522.099381l-60.311796-58.848706-99.977774 98.67725a24.384823 24.384823 0 1 1-34.301318-34.789014l99.327512-97.539292L764.057787 370.588347l-118.185109 116.559454a24.384823 24.384823 0 1 1-34.301317-34.789014l117.534846-115.746626L669.607239 278.25115100000005 601.4923 345.065566A24.384823 24.384823 0 0 1 567.028417 310.76424799999995L634.005398 243.78726800000004l-60.311796-58.686141-153.949516 151.836165a24.384823 24.384823 0 0 1-34.301317-34.789014l153.299254-151.023338-60.311796-58.68614L390.157168 180.711859a24.384823 24.384823 0 0 1-34.301318-34.789014l88.760756-87.460232-60.311796-58.686141-105.667566 104.204477A24.384823 24.384823 0 1 1 243.84823 69.19193499999994l105.017304-103.391649L308.874425-73.703127a19.995555 19.995555 0 0 0-27.798699 0L54.134307 146.73567200000002a17.394507 17.394507 0 0 0 0 25.197651l688.139705 669.769804a19.995555 19.995555 0 0 0 27.798698 0L996.363867 621.264328a17.394507 17.394507 0 0 0 0-25.197651z"  horiz-adv-x="1050" />

    
    <glyph glyph-name="add-retangle" unicode="&#59115;" d="M844 784H180a68.07 68.07 0 0 1-68-68v-664a68.07 68.07 0 0 1 68-68h664a68.07 68.07 0 0 1 68 68V716a68.07 68.07 0 0 1-68 68z m-4-728H184V712h656zM302 352h178v-178a8 8 0 0 1 8-8h48a8 8 0 0 1 8 8V352h178a8 8 0 0 1 8 8v48a8 8 0 0 1-8 8H544V594a8 8 0 0 1-8 8h-48a8 8 0 0 1-8-8v-178H302a8 8 0 0 1-8-8v-48a8 8 0 0 1 8-8z"  horiz-adv-x="1024" />

    
    <glyph glyph-name="minus-retangle" unicode="&#58912;" d="M888.490667 760.490667v-753.066667H135.509333V760.448h752.981334z m0 72.021333H135.509333c-39.808 0-72.021333-32.213333-72.021333-72.021333v-753.066667c0-39.808 32.213333-72.021333 72.021333-72.021333h753.066667c39.808 0 72.021333 32.213333 72.021333 71.978666V760.490667a72.106667 72.106667 0 0 1-72.106666 72.021333z m-157.013334-485.546667H290.56a35.968 35.968 0 1 0 0 72.021334h441.002667a35.968 35.968 0 1 0 0-72.021334z"  horiz-adv-x="1024" />

    
    <glyph glyph-name="file" unicode="&#58962;" d="M911.456784 286.601716c-0.544399-0.550539-1.280156-0.723477-1.846044-1.238201l0.25992-0.257873-18.007119-18.000979-0.406253 0.406253c-0.700965-0.821715-0.964978-1.860371-1.735527-2.64013-16.811898-16.97051-44.063565-16.97051-60.875462 0-16.809851 16.972557-16.809851 44.48926 0 61.463864 0.667196 0.673335 1.560542 0.895393 2.258437 1.51347l-0.715291 0.717338 18.005073 18.003026 0.725524-0.725524c0.598634 0.685615 0.810459 1.566682 1.460258 2.222621 16.809851 16.972557 44.063565 16.972557 60.875462 0C928.267659 331.090976 928.267659 303.574273 911.456784 286.601716zM496.797763 697.712935 257.051447 455.622224l0 0c-96.659457-97.590666-96.659457-255.815293 0-353.406982 96.65741-97.590666 253.372661-97.590666 350.030072 0l3.753487 3.759627 113.089661 115.467825 0.002047 0c16.809851 16.97051 44.063565 16.97051 60.873416 0 16.811898-16.972557 16.811898-44.48926 0-61.461817l0.002047-0.002047L671.709445 44.512029l-3.753487-3.759627c-130.278135-131.535779-341.501838-131.535779-471.779973 0-130.278135 131.533732-130.278135 344.797907 0 476.331639l0 0 239.747339 242.092757 0 0c92.455715 93.347015 246.110257 97.106642 338.565972 3.759627 92.455715-93.349061 92.455715-244.696048 0-338.043063l-4.155646-5.457292L560.161906 208.917426c-54.632271-55.159274-141.946896-54.302767-196.581214 0.857531-54.630225 55.159274-54.630225 144.590096 0 199.750393l0 0 133.217071 134.533043c16.809851 16.97051 44.065612 16.97051 60.875462 0 16.809851-16.972557 16.809851-44.491307 0-61.461817L424.456155 348.06558l0-0.002047c-21.011546-21.214161-21.011546-55.612599 0-76.826759 21.013593-21.217231 55.081503-21.217231 76.095096 0l0 0 0 0 213.062584 215.118406 0 0c0 0.002047 0 0.002047 0 0.002047 58.837036 59.399855 58.837036 155.712411 0 215.116359C654.778844 760.875486 555.636846 757.116883 496.797763 697.712935L496.797763 697.712935z"  horiz-adv-x="1024" />

    
    <glyph glyph-name="view" unicode="&#58906;" d="M512 52.224c-235.52 0-471.04 294.912-471.04 352.256 0 59.392 235.52 354.304 471.04 354.304s471.04-294.912 471.04-352.256c0-59.392-235.52-354.304-471.04-354.304z m0 647.168c-206.848 0-411.648-245.76-411.648-294.912 0-49.152 204.8-294.912 411.648-294.912 206.848 0 411.648 245.76 411.648 294.912 0 49.152-206.848 294.912-411.648 294.912z m0-440.32c-81.92 0-147.456 65.536-147.456 147.456S430.08 553.984 512 553.984s147.456-65.536 147.456-147.456-65.536-147.456-147.456-147.456z m0 235.52c-49.152 0-88.064-38.912-88.064-88.064s38.912-88.064 88.064-88.064 88.064 38.912 88.064 88.064c0 47.104-38.912 88.064-88.064 88.064z"  horiz-adv-x="1024" />

    
    <glyph glyph-name="app" unicode="&#58885;" d="M878.159424 330.59365l-327.396585 0c-11.307533 0-20.466124-9.168824-20.466124-20.466124l0-327.396585c0-11.307533 9.15859-20.466124 20.466124-20.466124l327.396585 0c11.2973 0 20.466124 9.15859 20.466124 20.466124l0 327.396585C898.625548 321.424826 889.456724 330.59365 878.159424 330.59365zM857.6933 3.197064l-286.464337 0 0 286.464337 286.464337 0L857.6933 3.197064zM430.606225 330.59365l-327.396585 0c-11.2973 0-20.466124-9.168824-20.466124-20.466124l0-327.396585c0-11.307533 9.168824-20.466124 20.466124-20.466124l327.396585 0c11.307533 0 20.466124 9.15859 20.466124 20.466124l0 327.396585C451.072349 321.424826 441.913758 330.59365 430.606225 330.59365zM410.140101 3.197064l-286.464337 0 0 286.464337 286.464337 0L410.140101 3.197064zM430.606225 780.398122l-327.396585 0c-11.2973 0-20.466124-9.15859-20.466124-20.466124l0-327.386352c0-11.307533 9.168824-20.466124 20.466124-20.466124l327.396585 0c11.307533 0 20.466124 9.15859 20.466124 20.466124l0 327.386352C451.072349 771.239532 441.913758 780.398122 430.606225 780.398122zM410.140101 453.01177l-286.464337 0 0 286.454104 286.464337 0L410.140101 453.01177zM965.529307 618.255255l-214.433814 214.433814c-3.837398 3.837398-9.046027 5.996574-14.46955 5.996574-5.433756 0-10.632151-2.159176-14.479783-5.996574l-214.433814-214.433814c-7.992021-7.992021-7.992021-20.957311 0-28.949332l214.433814-214.433814c4.001127-3.990894 9.240455-5.996574 14.479783-5.996574 5.229095 0 10.468422 2.00568 14.46955 5.996574l214.433814 214.433814c3.837398 3.837398 5.996574 9.046027 5.996574 14.46955C971.525881 609.209228 969.366705 614.417857 965.529307 618.255255zM736.625944 418.290991l-185.494715 185.484482 185.494715 185.494715 185.484482-185.494715L736.625944 418.290991z"  horiz-adv-x="1024" />

    
    <glyph glyph-name="kehu" unicode="&#58923;" d="M1023.445368 34.340365c0 149.362796-89.360214 277.04685-215.687364 329.140299 61.193711 42.330084 101.504812 114.445542 101.504812 196.358133 0 111.830995-75.128071 205.427696-175.939081 229.785453-0.958838 0.231267-1.820462 0.099261-2.681062-0.231267-1.158383 0.099261-2.251274 0.364297-3.408633 0.364297-21.545712 0-39.020712-18.10331-39.020712-40.410362 0-20.156062 14.297634-36.703947 32.929993-39.748283 3.309372-1.423419 7.645121-2.482541 7.810896-2.548032 58.414411-20.519336 100.446713-77.677127 100.446713-145.093563 0-75.160817-52.29197-137.64594-121.263831-150.718677-0.099261 0-0.164752-0.198521-0.265036-0.231267-22.935362-1.52268-41.170678-21.049409-41.170678-45.176922 0-24.491811 18.765389-44.349067 42.197054-45.308929 0.165776-0.066515 0.297782-0.330528 0.463558-0.364297 138.672316-14.628162 236.999762-136.952138 236.999762-285.817608 0-22.042016 17.243733-39.914058 38.524408-39.914058 20.784372 0 37.564547 17.044188 38.391379 38.324864 0.032746 0.231267 0.165776 0.397043 0.165776 0.595564 0 0.065492-0.033769 0.132006-0.033769 0.231267l0 0c0 0.265036 0.033769 0.497327 0.033769 0.728594L1023.443321 34.340365 1023.445368 34.340365 1023.445368 34.340365 1023.445368 34.340365 1023.445368 34.340365 1023.445368 34.340365zM561.589418 356.828151c73.042573 50.702776 121.197316 136.918369 121.197316 234.816027 0 156.01531-122.157177 282.508235-272.810363 282.508235-150.686954 0-272.844132-126.492926-272.844132-282.508235 0-97.930403 48.154743-184.113251 121.197316-234.816027C107.313098 294.442288 0.511653 141.703605 0.511653-36.98203c0-10.061147 0.562818-19.956517 1.291412-29.819143l0.065492 0c0-21.744233 17.044188-39.35124 38.027082-39.35124 21.016663 0 38.028105 17.607006 38.028105 39.35124 0 1.223874-0.231267 2.38328-0.364297 3.607154-0.727571 8.671497-1.356904 17.34197-1.356904 26.211988 0 190.865026 149.428288 345.588923 333.741084 345.588923 184.344518 0 333.773829-154.723897 333.773829-345.588923 0-9.200546-0.629333-18.269086-1.423419-27.238364 0-0.463558-0.13303-0.893346-0.13303-1.356904 0-0.164752 0.032746-0.297782 0.032746-0.429789 0-0.265036 0-0.529049-0.032746-0.76134l0.13303 0c0.62831-21.181415 17.309224-38.192857 37.894052-38.192857 20.585851 0 37.266765 17.011442 37.895075 38.192857l0.099261 0c0.694825 9.829879 1.191128 19.757996 1.191128 29.786397C819.407322 141.703605 712.606901 294.442288 561.589418 356.828151L561.589418 356.828151 561.589418 356.828151 561.589418 356.828151zM409.976372 388.732791c-108.256586 0-195.994859 90.848101-195.994859 202.911386 0 112.063285 87.738273 202.912409 195.994859 202.912409 108.22384 0 195.962114-90.848101 195.962114-202.912409C605.938486 479.581915 518.200212 388.732791 409.976372 388.732791L409.976372 388.732791 409.976372 388.732791 409.976372 388.732791z"  horiz-adv-x="1039" />

    
    <glyph glyph-name="more" unicode="&#59009;" d="M834.7-24.100000000000022h-643c-23.7 0-43 19.2-43 43 0 23.7 19.2 43 43 43h643c23.7 0 43-19.2 43-43 0-23.7-19.3-43-43-43ZM834.7 705.1h-643c-23.7 0-43 19.2-43 43 0 23.7 19.2 43 43 43h643c23.7 0 43-19.2 43-43s-19.3-43-43-43ZM834.7 350.5h-643c-23.7 0-43 19.2-43 43 0 23.7 19.2 43 43 43h643c23.7 0 43-19.2 43-43 0-23.7-19.3-43-43-43Z"  horiz-adv-x="1024" />

    
    <glyph glyph-name="password" unicode="&#59096;" d="M517.2 362.5c-69.1 0-125.2-56.4-125.2-125.8 0-58.9 40.5-108.4 95-122v-72.9c0-16.5 13.5-30 30-30s30 13.5 30 30v95.5c0.2 1.2 0.2 2.5 0.2 3.7 0 16.6-13.4 30-30 30-36 0-65.2 29.5-65.2 65.8s29.3 65.8 65.2 65.8c19.9 0 38.4-9 50.9-24.6 9.4-11.8 14.3-26 14.3-41.1 0-9.7-2-18.9-6-27.6-6.9-15.1-0.3-32.9 14.7-39.8 15.1-6.9 32.9-0.3 39.8 14.7 7.6 16.6 11.5 34.3 11.5 52.7 0 28.4-9.7 56.3-27.4 78.5-23.8 29.8-59.5 47.1-97.8 47.1zM836 502h-53l-0.2 127.5c0 31-5.3 61.5-15.8 90.6C728.9 825.3 628.9 896 518 896h-11.2c-70.5 0-137-27.8-187.2-78.3-50.1-50.5-77.7-117.3-77.7-188.2V502H188c-33 0-60-27-60-60v-516c0-29.7 24.3-54 54-54h660c29.7 0 54 24.3 54 54V442c0 33-27 60-60 60zM301.9 629.5c0 54.9 21.4 106.8 60.3 145.9C401 814.5 452.3 836 506.7 836H518c85.7 0 163.1-54.8 192.6-136.4 8.1-22.5 12.3-46.1 12.3-70.2L723 502H301.9V629.5zM188-68V441.9l0.1 0.1h647.8l0.1-0.1V-68H188z"  horiz-adv-x="1024" />

    
    <glyph glyph-name="paixu" unicode="&#59370;" d="M81.454545 686.545455a34.909091 34.909091 0 1 0 0 69.818181h465.454546a34.909091 34.909091 0 1 0 0-69.818181h-465.454546z m0-349.09091a34.909091 34.909091 0 1 0 0 69.818182h325.818182a34.909091 34.909091 0 1 0 0-69.818182h-325.818182z m418.909091-279.272727a34.909091 34.909091 0 1 0 0-69.818182h-418.909091a34.909091 34.909091 0 1 0 0 69.818182h418.909091z m398.708364 180.433455a34.909091 34.909091 0 1 0 49.338182-49.361455l-213.876364-213.922909c-3.258182-3.258182-7.121455-5.818182-11.450182-7.610182-0.162909-0.069818-0.349091-0.093091-0.512-0.139636A34.676364 34.676364 0 0 0 709.818182-34.909091c-4.514909 0-8.773818 0.930909-12.730182 2.490182l-0.535273 0.139636a35.351273 35.351273 0 0 0-11.426909 7.610182l-213.922909 213.922909a34.909091 34.909091 0 1 0 49.338182 49.338182L674.909091 84.293818V744.727273a34.909091 34.909091 0 0 0 69.818182 0v-660.48l154.344727 154.368z"  horiz-adv-x="1024" />

    
    <glyph glyph-name="paixu1" unicode="&#60426;" d="M942.543 81.457a34.9091 34.9091 0 1 0 0-69.8182l-465.454 0a34.9091 34.9091 0 1 0 0 69.8182l465.454 0Zm0 349.092a34.9091 34.9091 0 1 0 0-69.8182l-325.818 0a34.9091 34.9091 0 1 0 0 69.8182l325.818 0Zm-418.909 279.273a34.9091 34.9091 0 1 0 0 69.8182l418.908 0a34.9091 34.9091 0 1 0 0-69.8182l-418.908 0Zm-398.709-180.433a34.9091 34.9091 0 1 0-49.3382 49.3615l213.876 213.923c3.25818 3.25818 7.12146 5.81818 11.4502 7.61016 0.162909 0.0698182 0.349091 0.0930913 0.512 0.139636A34.6764 34.6764 0 0 0 314.182 802.909c4.5149 0 8.77382-0.930906 12.7302-2.49014l0.535273-0.139636a35.3513 35.3513 0 0 0 11.4269-7.61012l213.923-213.923a34.9091 34.9091 0 1 0-49.3382-49.3382L349.091 683.706 349.09 23.273000000000024a34.9091 34.9091 0 0 0-69.8182 0l0 660.48-154.345-154.368Z"  horiz-adv-x="1024" />

    
    <glyph glyph-name="pencil" unicode="&#58990;" d="M532.48 657.92l256-256-85.3333-85.3333-85.3333 85.3333-85.3333 85.3333-85.3333 85.3333 85.3333 85.3333Zm-426.667-597.333l85.3333-85.3333h-85.3333v85.3333ZM361.83-41.81299999999999h-256a17.0667 17.0667 0 0 0-17.0667 17.0667v84.5824a22.0331 22.0331 0 0 0 0 1.50187v169.148L88.7467 231.25300000000004c0 4.93227 2.0992 9.40373 5.46133 12.5099L434.637 584.192l0.443733 0.4608a11.0933 11.0933 0 0 0 0.4608 0.443733l84.8725 84.8896 111.787 111.787a17.0496 17.0496 0 0 0 1.4336 1.28c34.0651 27.1701 88.5419 46.5408 154.59-15.3941l108.749-108.766c53.3845-57.2757 51.8656-118.187-3.9936-176.606L373.897-36.81299999999999a17.0155 17.0155 0 0 0-12.0661-5.00053Zm-163.618 34.1333H344.747v51.2h-68.2667a17.0667 17.0667 0 0 0-17.0667 17.0667v68.2667h-68.2667a17.0667 17.0667 0 0 0-17.0667 17.0667v68.2667H122.897v-146.551l75.3152-75.3152Zm-75.3152 0h27.0507l-27.0507 27.0507v-27.0507Zm170.65 85.3333h68.2667a17.0667 17.0667 0 0 0 17.0667-17.0667v-44.1515L679.014 316.587 617.813 377.788 373.879 133.85400000000004a17.0496 17.0496 0 1 0-24.1323 24.1323L593.681 401.92 532.48 463.121 288.546 219.187a17.0496 17.0496 0 1 0-24.1323 24.1323L508.348 487.253l-61.184 61.184L147.029 248.32000000000005H191.147a17.0667 17.0667 0 0 0 17.0667-17.0667v-68.2667h68.2667a17.0667 17.0667 0 0 0 17.0667-17.0667v-68.2667Zm336.333 336.333l73.2672-73.2672 61.2011 61.184L532.48 633.788l-61.184-61.2011 158.583-158.601ZM556.612 657.92L788.48 426.052l80.0768 80.0939c42.8032 44.7659 44.1003 85.8453 3.85707 129.041l-107.947 107.947c-51.4048 48.1792-86.6304 31.2661-108.834 13.8069l-99.0208-99.0208Z"  horiz-adv-x="1024" />

    
    <glyph glyph-name="kefu" unicode="&#58890;" d="M808.6 445.8c-0.7 10-1.9 19.9-3.5 29.6-11.7 68.4-47.3 130.9-100.3 176.1-53.8 45.7-122.2 70.9-192.8 70.9-68.9 0-136.1-24.1-189.1-67.9-52.3-43.2-88.6-103.4-102.1-169.5-2.3-11.3-3.9-22.7-4.9-34.3-38.7-12.3-66.8-48.5-66.8-91.2v-70c0-52.8 42.7-95.7 95.5-95.7s95.5 42.9 95.5 95.7v70c0 41.8-26.8 77.4-64.2 90.4 0.8 7.7 2.1 15.4 3.6 23C302 582.7 399.8 662.3 512 662.3c116.1 0 214.5-82.9 233.9-197.1 1.1-6.6 2.2-13.3 2.8-20-37.7-12.8-64.7-48.6-64.7-90.6v-70c0-28.9 12.7-54.9 33-72.5-26.7-44-55.7-64.9-95.9-70.4-10.6 25.9-36.1 44.3-65.7 44.3h-38.1c-39.1 0-71-31.9-71-71s31.8-71 71-71h38.1c27.1 0 50.7 15.1 62.6 37.4 0.4 0 0.9-0.1 1.3-0.1 1 0 2.1 0 3.2 0.1 37.7 3.9 70.8 18.1 98.4 42 19.2 16.7 36 37.8 51.9 65.8 2.1-0.1 4.2-0.2 6.4-0.2 52.8 0 95.7 42.9 95.7 95.7v70c0.1 42.5-27.8 78.7-66.3 91.1ZM280 289.5c0-19.7-15.8-35.5-35.5-35.5h0.1c-19.7 0-35.6 15.8-35.6 35.5v70c0 19.1 15.1 34.8 34 35.7h3.2c18.9-0.9 33.8-16.5 33.8-35.7v-70ZM555.4 104h-38.1c-6 0-11 5-11 11s4.9 11 11 11h38.1c6 0 11-5 11-11s-4.9-11-11-11ZM815 284.70000000000004c0-19.7-16-35.7-35.7-35.7h0.2c-19.7 0-35.5 16-35.5 35.7v70c0 19.7 15.8 35.7 35.5 35.7s35.5-16 35.5-35.7v-70Z"  horiz-adv-x="1024" />

    
    <glyph glyph-name="add" unicode="&#58897;" d="M512 833.61c-248.312 0-449.61-201.298-449.61-449.61s201.298-449.61 449.61-449.61 449.61 201.298 449.61 449.61S760.312 833.61 512 833.61ZM786.507 109.49300000000005c-35.6725-35.6725-77.1962-63.6722-123.417-83.2224-47.8211-20.2267-98.6559-30.4822-151.091-30.4822-52.4352 0-103.27 10.2556-151.091 30.4822-46.2207 19.5492-87.7444 47.55-123.417 83.2224-35.6725 35.6725-63.6722 77.1962-83.2224 123.417-20.2267 47.8211-30.4822 98.6559-30.4822 151.09 0 52.4352 10.2556 103.27 30.4822 151.091 19.5492 46.2207 47.55 87.7444 83.2224 123.417 35.6725 35.6725 77.1962 63.6722 123.417 83.2224 47.8211 20.2267 98.6549 30.4822 151.091 30.4822 52.4352 0 103.269-10.2556 151.091-30.4822 46.2207-19.5492 87.7444-47.55 123.417-83.2224 35.6725-35.6725 63.6722-77.1962 83.2224-123.417 20.2267-47.8211 30.4822-98.6559 30.4822-151.091 0-52.4352-10.2556-103.269-30.4822-151.09C850.179 186.68899999999996 822.179 145.16499999999996 786.507 109.49300000000005ZM748.595 414.699L542.699 414.699 542.699 620.595c0 16.9541-13.745 30.6992-30.6992 30.6992s-30.6992-13.745-30.6992-30.6992l0-205.895L275.405 414.699c-16.9541 0-30.6992-13.745-30.6992-30.6992s13.745-30.6992 30.6992-30.6992l205.895 0 0-205.895c0-16.9541 13.745-30.6992 30.6992-30.6992s30.6992 13.745 30.6992 30.6992L542.699 353.302l205.895 0c16.9541 0 30.6992 13.744 30.6992 30.6992S765.55 414.699 748.595 414.699Z"  horiz-adv-x="1024" />

    
    <glyph glyph-name="save" unicode="&#60425;" d="M925.248 539.072l-258.176 258.176a64 64 0 0 1-45.248 18.752H144a64 64 0 0 1-64-64v-736a64 64 0 0 1 64-64h736a64 64 0 0 1 64 64V493.824a64 64 0 0 1-18.752 45.248ZM288 752h192V640H288V752Zm448-736H288V160h448v-144Zm144 0H800V192a32 32 0 0 1-32 32H256a32 32 0 0 1-32-32v-176H144v736H224V608a32 32 0 0 1 32-32h256a32 32 0 0 1 32 32V752h77.824l258.176-258.176V16Z"  horiz-adv-x="1024" />

    
    <glyph glyph-name="refresh" unicode="&#58921;" d="M983.48 588.8A512.951 512.951 0 0 1 513.318 896a512.365 512.365 0 0 1-410.843-205.531 42.4228 42.4228 0 0 1 67.8034-50.688 427.666 427.666 0 0 0 343.04 171.666 428.251 428.251 0 0 0 392.557-256.439 42.4228 42.4228 0 0 1 77.6045 33.8651ZM34.3793 563.2A334.555 334.555 0 0 1 0.002194 426.131a42.2765 42.2765 0 0 1 84.6994-0.877713 251.611 251.611 0 0 0 24.7954 99.0354A42.4228 42.4228 0 0 1 34.3793 563.2Zm10.1668-387.145A512.951 512.951 0 0 1 513.318-128a512.365 512.365 0 0 1 410.404 204.873 42.4228 42.4228 0 0 1-67.7302 50.7611 427.666 427.666 0 0 0-342.674-171.081 428.251 428.251 0 0 0-391.387 253.806 42.4228 42.4228 0 0 1-77.3851-34.3771Zm948.955 24.576c21.2846 43.8857 30.8663 89.9657 30.5005 142.628a42.2765 42.2765 0 0 1-84.6994-0.731428c0.292571-40.0091-6.58285-73.3622-21.9428-105.033a42.4228 42.4228 0 0 1 76.2148-36.9371ZM776.633 619.6659999999999A44.9828 44.9828 0 0 1 731.43 574.903c0-24.6491 20.2606-44.6903 45.2023-44.6903h177.006A69.9245 69.9245 0 0 1 1024 599.7719999999999V778.24a44.9828 44.9828 0 0 1-45.2023 44.6171 44.9828 44.9828 0 0 1-45.2754-44.6171v-158.574h-156.891ZM247.371 148.33399999999995A44.9828 44.9828 0 0 1 292.573 193.09799999999996 44.9828 44.9828 0 0 1 247.371 237.71500000000003H70.3656A69.9245 69.9245 0 0 1 0.002194 168.22900000000004v-178.468c0-24.576 20.2606-44.6171 45.2023-44.6171a44.9828 44.9828 0 0 1 45.2754 44.6171v158.574h156.891Z"  horiz-adv-x="1024" />

    
    <glyph glyph-name="add-pic" unicode="&#58901;" d="M1004.8 704h-192c-12.8 0-19.2 6.4-19.2 19.2s6.4 19.2 19.2 19.2h192c12.8 0 19.2-6.4 19.2-19.2s-6.4-19.2-19.2-19.2ZM908.8 608c-12.8 0-19.2 6.4-19.2 19.2v192c0 12.8 6.4 19.2 19.2 19.2s19.2-6.4 19.2-19.2v-192c0-12.8-6.4-19.2-19.2-19.2ZM224 384c-44.8 0-83.2 38.4-83.2 83.2s38.4 83.2 83.2 83.2 83.2-38.4 83.2-83.2S268.8 384 224 384Zm0 128c-25.6 0-44.8-19.2-44.8-44.8s19.2-44.8 44.8-44.8 44.8 19.2 44.8 44.8-19.2 44.8-44.8 44.8ZM780.8-64H147.2C64-64 0 0 0 83.20000000000004v512c0 83.2 64 147.2 147.2 147.2H704c12.8 0 19.2-6.4 19.2-19.2s-6.4-19.2-19.2-19.2H147.2C89.6 704 38.4 652.8 38.4 595.2v-512c0-57.6 51.2-108.8 108.8-108.8h633.6c57.6 0 108.8 51.2 108.8 108.8V492.8c-12.8 12.8-57.6 51.2-147.2 19.2-76.8-25.6-96-89.6-115.2-160-12.8-51.2-32-96-76.8-115.2-32-12.8-83.2-6.4-147.2 25.6-115.2 57.6-294.4-121.6-300.8-121.6-6.4-6.4-19.2-6.4-25.6 0s-6.4 19.2 0 25.6c6.4 6.4 204.8 198.4 339.2 134.4 57.6-32 96-38.4 121.6-32 25.6 12.8 38.4 51.2 51.2 96 19.2 70.4 44.8 153.6 140.8 185.6 134.4 44.8 192-38.4 192-44.8l6.4-12.8v-409.6c0-83.2-64-147.2-147.2-147.2Z"  horiz-adv-x="1024" />

    
    <glyph glyph-name="next-circle" unicode="&#60011;" d="M512 853.3333C252.793 853.3333 42.6667 643.207 42.6667 384s210.127-469.333 469.333-469.333 469.333 210.127 469.333 469.333S771.207 853.3333 512 853.3333Zm0-896c-235.64 0-426.667 191.027-426.667 426.667s191.027 426.667 426.667 426.667 426.667-191.027 426.667-426.667-191.027-426.667-426.667-426.667Zm-160 213.38a53.3733 53.3733 0 0 0-53.3333 53.3333V543.933A53.3333 53.3333 0 0 0 382.04 588L616.667 428.067a53.3333 53.3333 0 0 0 0-88.1333L382.04 180a53.2867 53.2867 0 0 0-30.04-9.28667Zm0.08 383.933a11.0933 11.0933 0 0 1-5.08-1.28 10.4467 10.4467 0 0 1-5.66667-9.43333v-319.867a10.6667 10.6667 0 0 1 16.6667-8.82l234.667 159.94a10.6667 10.6667 0 0 1 0 17.6267l-234.667 159.933a10.3133 10.3133 0 0 1-5.90667 1.92ZM704 170.66700000000003a21.3333 21.3333 0 0 0-21.3333 21.3333V576a21.3333 21.3333 0 0 0 42.6667 0v-384a21.3333 21.3333 0 0 0-21.3333-21.3333Z"  horiz-adv-x="1024" />

    
    <glyph glyph-name="replay" unicode="&#59157;" d="M701.44 303.44500000000005a85.3333 85.3333 0 0 1 0 144.384l-229.291 144.427C415.317 628.011 341.333 587.179 341.333 520.021v-288.811c0-67.1573 73.984-107.947 130.816-72.192l229.248 144.427Zm-45.4827 72.192L426.667 231.211V520.107l229.291-144.427ZM509.952 768a386.091 386.091 0 0 1-304.085-147.413H256a42.6667 42.6667 0 1 0 0-85.3333H128a42.6667 42.6667 0 0 0-42.6667 42.6667V733.0989999999999a42.6667 42.6667 0 0 0 85.3333 0v-23.296A470.997 470.997 0 0 0 509.952 853.3333C770.133 853.3333 981.333 643.413 981.333 384s-211.2-469.333-471.381-469.333a471.595 471.595 0 0 0-419.883 255.915 42.6667 42.6667 0 1 0 75.904 38.9547A386.261 386.261 0 0 1 509.952 0C723.371 0 896 172.11699999999996 896 384s-172.629 384-386.048 384Z"  horiz-adv-x="1024" />

    
    <glyph glyph-name="play" unicode="&#58892;" d="M500.864 812.608c239.68 0 434.656-194.976 434.656-434.624 0-239.648-195.008-434.656-434.656-434.656S66.24 138.336 66.24 377.98400000000003 261.216 812.608 500.864 812.608m0-933.28c274.944 0 498.656 223.712 498.656 498.656S775.84 876.608 500.864 876.608C225.92 876.608 2.24 652.928 2.24 377.98400000000003S225.92-120.66999999999996 500.864-120.66999999999996M436.864 483.488l189.024-105.504-189.024-105.504v211.008Zm-32-297.504a31.04 31.04 0 0 1 15.36 4.48l0.224-0.416 286.72 160-0.256 0.416a31.584 31.584 0 0 1 16.64 27.52 31.552 31.552 0 0 1-16.64 27.52l0.224 0.416-286.688 160-0.224-0.416a30.72 30.72 0 0 1-15.36 4.48 32 32 0 0 1-32-32v-320a32 32 0 0 1 32-32Z"  horiz-adv-x="1024" />

    
    <glyph glyph-name="pause" unicode="&#58953;" d="M511.999 896C229.229 896 0 666.768 0 384c0-282.77 229.229-512 511.999-512C794.77-128 1024 101.23000000000002 1024 384 1024 666.768 794.77 896 511.999 896Zm0-943.582C273.644-47.581999999999994 80.418 145.64499999999998 80.418 384c0 238.356 193.226 431.582 431.581 431.582 238.357 0 431.582-193.226 431.582-431.582 0-238.355-193.225-431.582-431.582-431.582ZM432.418 199.20899999999995c0-22.207-18.002-40.209-40.209-40.209C370.002 159 352 177.00199999999995 352 199.20899999999995V568.7909999999999C352 590.998 370.002 609 392.209 609c22.207 0 40.209-18.002 40.209-40.209v-369.582ZM672 199.20899999999995C672 177.00199999999995 653.998 159 631.791 159c-22.207 0-40.209 18.002-40.209 40.209V568.7909999999999c0 22.207 18.002 40.209 40.209 40.209C653.998 609 672 590.998 672 568.7909999999999v-369.582Z"  horiz-adv-x="1024" />

    
    <glyph glyph-name="stop" unicode="&#58928;" d="M512-128A512 512 0 1 0 512 896a512 512 0 0 0 0-1024Zm0 64A448 448 0 1 1 512 832a448 448 0 0 1 0-896ZM320 544a32 32 0 0 0 32 32h320a32 32 0 0 0 32-32v-320a32 32 0 0 0-32-32h-320a32 32 0 0 0-32 32v320ZM384 512v-256h256V512H384Z"  horiz-adv-x="1024" />

    
    <glyph glyph-name="warn" unicode="&#59080;" d="M512 893.68904c-282.181 0-510.845-228.664-510.845-510.845 0-282.181 228.664-510.845 510.845-510.845 282.181 0 510.845 228.664 510.845 510.845C1022.84 664.904 794.059 893.68904 512 893.68904L512 893.68904ZM512-67.91499999999996c-248.976 0-450.759 201.784-450.759 450.759 0 248.976 201.784 450.759 450.759 450.759 248.976 0 450.759-201.784 450.759-450.759C962.638 133.86900000000003 760.854-67.91499999999996 512-67.91499999999996L512-67.91499999999996ZM512 638.267c-23.4745 0-42.5704-19.0959-42.5704-42.5704l0-276.707c0-23.4745 19.0959-42.5704 42.5704-42.5704 23.4745 0 42.5704 19.0959 42.5704 42.5704L554.57 595.696C554.449 619.171 535.475 638.267 512 638.267L512 638.267ZM512 212.563c-23.4745 0-42.5704-19.0959-42.5704-42.5704 0-23.4745 19.0959-42.5704 42.5704-42.5704 23.4745 0 42.5704 19.0959 42.5704 42.5704C554.449 193.46699999999998 535.475 212.563 512 212.563L512 212.563ZM512 212.563"  horiz-adv-x="1024" />

    
    <glyph glyph-name="dengpao" unicode="&#58889;" d="M281.674 642.576c11.553 14.585 24.288 28.14 38.208 40.267l-68.978 69.013c-10.828 10.867-28.404 10.867-39.275 0-10.831-10.831-10.831-28.404 0-39.235l70.046-70.043zM506.013 753.531c0.268 0 0.494 0 0.802 0 9.109 0 18.109-0.571 26.955-1.487l0 93.986c0 15.327-12.432 27.757-27.76 27.757s-27.721-12.429-27.721-27.757l0-93.968c8.846 0.895 17.842 1.469 26.956 1.469 0.27 0 0.534 0 0.762 0zM730.414 642.612l69.971 70.007c10.866 10.831 10.866 28.404 0 39.235-10.794 10.867-28.405 10.867-39.277 0l-69.018-69.013c13.958-12.123 26.695-25.664 38.324-40.227zM213.494 445.775c0 13.403 1.07 26.519 2.633 39.483l-98.682 0c-15.289 0-27.722-12.432-27.722-27.757 0-15.328 12.434-27.757 27.722-27.757l96.393 0c-0.229 5.28-0.345 10.581-0.345 16.033zM894.563 485.255l-98.643 0c1.6-12.964 2.633-26.082 2.633-39.483 0-5.45-0.115-10.753-0.305-16.033l96.315 0c15.332 0 27.722 12.429 27.722 27.757s-12.39 27.757-27.722 27.757zM745.017 257.738c-11.286-16.547-23.218-30.843-34.695-43.77l50.787-50.829c10.868-10.831 28.483-10.831 39.277 0 10.866 10.867 10.866 28.404 0 39.275l-55.37 55.324zM211.627 202.415c-10.831-10.867-10.831-28.404 0-39.275 10.868-10.831 28.448-10.831 39.275 0l50.83 50.863c-11.475 12.889-23.412 27.222-34.699 43.731l-55.403-55.324zM760.039 445.775c0.037 57.556-19.138 110.785-51.438 153.414-28.33 37.442-66.806 66.802-111.379 84.036l0.229 1.222-19.026 5.586c-14.798 4.29-30.051 7.265-45.605 8.867l-2.211 0.246-0.075 0-0.079 0.019c-7.623 0.724-15.557 1.279-23.83 1.279l-1.218 0c-8.276 0-16.207-0.557-23.833-1.279l-0.115-0.019-2.286-0.246c-15.535-1.6-30.791-4.575-45.549-8.867l-18.416-5.374 0.19-1.222c-44.802-17.214-83.505-46.651-111.99-84.244-32.258-42.628-51.438-95.854-51.438-153.414 0-41.274 7.132-75.207 18.227-103.29 16.661-42.114 42.094-70.559 62.533-92.138 10.22-10.754 19.22-19.941 25.317-27.795 6.254-7.892 9.265-13.995 10.141-18.837 4.459-23.565 4.917-53.306 4.917-60.854l0-2.174c0-34.085 27.609-61.617 61.659-61.655l142.51 0c34.092 0.037 61.659 27.609 61.659 61.655l0 2.097c-0.037 7.474 0.458 37.291 4.919 60.893 0.608 3.278 2.058 7.017 4.917 11.591 4.88 7.97 14.11 17.883 25.548 29.819 17.083 17.959 38.815 40.604 56.091 72.805 17.312 32.161 29.703 73.706 29.626 127.882zM701.813 358.324c-13.614-34.336-34.053-57.575-53.763-78.391-9.841-10.411-19.487-20.095-27.911-30.812-8.311-10.562-15.745-22.65-18.606-37.481-5.377-28.94-5.607-59.978-5.638-68.862 0-1.181 0-1.828 0-2.096-0.037-10.295-8.314-18.606-18.608-18.606l-142.51 0c-5.223 0-9.761 2.059-13.194 5.45-3.391 3.434-5.412 7.934-5.412 13.154 0 0.268 0 0.953 0 2.172-0.037 8.957-0.306 39.921-5.682 68.783-1.828 9.797-5.834 18.571-10.674 26.348-8.579 13.612-19.559 24.819-30.889 36.832-17.116 17.842-35.232 37.119-49.341 63.41-14.07 26.309-24.517 59.745-24.557 107.54 0.037 47.947 15.862 91.95 42.706 127.427 26.845 35.442 64.595 62.209 108.175 75.246l5.377 1.638c10.524 2.708 21.315 4.861 32.429 6.026l0.075 0 2.06 0.229c6.519 0.627 12.847 1.03 19.103 1.066l1.105-0.115 1.106 0.076c6.212 0 12.579-0.42 19.063-1.03l-0.079 0 2.137-0.229 0.037 0c11.093-1.163 21.887-3.277 32.372-6.026l5.451-1.638c43.582-13.037 81.329-39.807 108.175-75.246 26.801-35.478 42.666-79.482 42.666-127.427 0.003-36.409-6.094-64.511-15.169-87.446zM532.782 698.893l0.079 0zM479.17 698.893l0 0c0 0 0.037 0 0.075 0l-0.075 0zM576.706 62.175l-141.369 0c-14.604 0-26.499-11.822-26.499-26.539 0-14.564 11.899-26.465 26.499-26.465l141.369 0c14.604 0 26.499 11.899 26.499 26.465 0 14.721-11.899 26.539-26.499 26.539zM576.706-4.704l-141.369 0c-14.604 0-26.499-11.857-26.499-26.464 0-14.678 11.899-26.539 26.499-26.539l141.369 0c14.604 0 26.499 11.857 26.499 26.539 0 14.605-11.899 26.464-26.499 26.464zM518.406-72.116l-72.805 0c0-0.801-0.154-1.561-0.154-2.404 0-14.643 22.498-26.499 43.297-26.499l34.546 0c20.818 0 43.277 11.857 43.277 26.499 0 0.837-0.115 1.6-0.115 2.404l-48.044 0z"  horiz-adv-x="1024" />

    
    <glyph glyph-name="check" unicode="&#59231;" d="M384 96c-9.6 0-16 3.2-22.4 9.6l-256 256c-12.8 12.8-12.8 32 0 44.8s32 12.8 44.8 0l233.6-233.6L873.6 662.4c12.8 12.8 32 12.8 44.8 0s12.8-32 0-44.8l-512-512C400 99.2 393.6 96 384 96z"  horiz-adv-x="1024" />

    
    <glyph glyph-name="arrow" unicode="&#58880;" d="M106.951 420c23.395 0 42.36-18.964 42.36-42.36 0-23.39-18.965-42.358-42.36-42.358S64.593 354.25 64.593 377.64c0 23.396 18.964 42.36 42.358 42.36z m167.308 0c23.395 0 42.36-18.964 42.36-42.36 0-23.39-18.965-42.358-42.36-42.358S231.9 354.25 231.9 377.64c0 23.396 18.964 42.36 42.359 42.36z m167.307 0c23.395 0 42.36-18.964 42.36-42.36 0-23.39-18.965-42.358-42.36-42.358s-42.36 18.967-42.36 42.358c0.002 23.396 18.966 42.36 42.36 42.36z m167.309 0c23.394 0 42.36-18.964 42.36-42.36 0-23.39-18.965-42.358-42.36-42.358s-42.36 18.967-42.36 42.358c0 23.396 18.965 42.36 42.36 42.36z m343.413-13.279l-263.817 263.82c-12.096 12.088-35.304 8.486-51.843-8.058-16.538-16.54-20.149-39.754-8.057-51.846l226.64-226.642-226.633-226.637c-12.093-12.087-8.482-35.31 8.056-51.84 16.539-16.54 39.747-20.146 51.843-8.065l263.817 263.82c5.716 5.708 7.88 13.92 6.876 22.722 0.999 8.803-1.167 17.006-6.882 22.726z"  horiz-adv-x="1024" />

    
    <glyph glyph-name="track" unicode="&#59008;" d="M511.3 437.4c-64.9 0-117.7 52.8-117.7 117.7s52.8 117.7 117.7 117.7S629 620 629 555.1s-52.8-117.7-117.7-117.7Zm0 171.3c-29.6 0-53.7-24.1-53.7-53.7s24.1-53.7 53.7-53.7S565 525.5 565 555c0 29.6-24.1 53.7-53.7 53.7ZM514 88.10000000000002l-25.1 30.6c-2.1 2.6-52.8 64.4-107.2 144.4C307.1 372.70000000000004 264 459.7 253.5 521.9c-6.7 39.6-4.7 78.8 5.9 116.5 10.2 36 27.6 68.9 52 97.7 50.3 59.6 124.1 93.8 202.3 93.8 40.7 0 79.8-9 116.4-26.7 34.9-16.9 66.3-41.7 90.6-71.6 23.5-28.8 40-61.3 49.1-96.6 9.7-37.3 10.5-75.7 2.5-114.2-12.8-61.6-56.2-148.2-129.2-257.4-53.4-79.9-102.4-141.6-104.5-144.2L514 88.10000000000002Zm-0.4 677.7c-59.3 0-115.2-25.9-153.4-71.1-18.4-21.7-31.6-46.5-39.2-73.7-8.1-28.5-9.5-58.3-4.4-88.4 6.2-36.4 31.7-106.5 118.1-233.5 29.8-43.8 58.9-82.5 78.6-108 19.3 25.6 47.7 64.4 76.9 108.2C657.4 399.9 698.7 481 709.7 533.7c11.7 56.5-2 112.4-38.6 157.4-18.5 22.7-42.3 41.5-68.9 54.4-27.9 13.5-57.7 20.3-88.6 20.3ZM863.1-59.39999999999998H383.6v64h479.5c17.9 0 32.4 14.5 32.4 32.4 0 18.7-15.3 34-34 34H181c-30.9 0-60 12.1-81.9 34-21.9 21.9-33.9 51-33.8 82 0.1 63.8 52.2 115.8 116 115.8H281v-64h-99.7c-28.6 0-51.9-23.3-52-51.9 0-13.8 5.3-26.8 15.1-36.6S167.2 135 181 135h680.5c54 0 98-44 98-98 0-53.2-43.3-96.4-96.4-96.4Z"  horiz-adv-x="1024" />

    
    <glyph glyph-name="drive" unicode="&#58950;" d="M307.6 563.9c0 19.2-15.6 34.8-34.8 34.8h-6.2c-19.2 0-34.8-15.6-34.8-34.8v-1c0-19.2 15.6-34.8 34.8-34.8h6.2c19.2 0 34.8 15.6 34.8 34.8v1ZM665.6 562.9v1c0 19.2-15.6 34.8-34.8 34.8H400c-19.2 0-34.8-15.6-34.8-34.8v-1c0-19.2 15.6-34.8 34.8-34.8h230.8c19.2 0 34.8 15.6 34.8 34.8ZM272.8 447.3h-6.2c-19.2 0-34.8-15.6-34.8-34.8 0-19.2 15.6-34.8 34.8-34.8h6.2c19.2 0 34.8 15.6 34.8 34.8 0 19.2-15.6 34.8-34.8 34.8ZM400 447.3c-19.2 0-34.8-15.6-34.8-34.8 0-19.2 15.6-34.8 34.8-34.8h119.1c19.2 0 34.8 15.6 34.8 34.8 0 19.2-15.6 34.8-34.8 34.8H400ZM272.8 295.20000000000004h-6.2c-19.2 0-34.8-15.6-34.8-34.8v-0.7c0-19.2 15.6-34.8 34.8-34.8h6.2c19.2 0 34.8 15.6 34.8 34.8v0.7c0 19.2-15.6 34.8-34.8 34.8ZM433.9 295.20000000000004H400c-19.2 0-34.8-15.6-34.8-34.8v-0.7c0-19.2 15.6-34.8 34.8-34.8h33.9c19.2 0 34.8 15.6 34.8 34.8v0.7c0 19.2-15.6 34.8-34.8 34.8ZM719.7 392.9c-123.1 0-223.3-100.2-223.3-223.3 0-123.1 100.2-223.3 223.3-223.3S943 46.5 943 169.60000000000002c0 123.1-100.1 223.3-223.3 223.3Zm0-53c55.7 0 106.7-26.6 138.8-71.6l-84.4-48.5a73.694 73.694 0 0 1-54.3 23.8c-19.9 0-38.8-8.1-52.6-22.1l-77 58.3c32.1 37.9 79.8 60.1 129.5 60.1Zm-26.4-338.5c-81.7 12.9-143.8 84.3-143.8 168.2 0 22.6 4.3 44.3 12.9 64.9l83.5-63.2v-1.7c0-31.1 19.1-58.3 47.5-69.1v-99.1Zm26.4 147.2c-11.6 0-21 9.4-21 21s9.4 21 21 21 21-9.4 21-21c0.1-11.6-9.4-21-21-21Zm26.5-147.2v99.1c28.4 10.8 47.5 38 47.5 69.1v0.4l88.4 50.8c5.2-16.5 7.9-33.7 7.9-51.2 0.1-83.9-62.1-155.3-143.8-168.2ZM153.3 750.5h611.3v-295.9h70.5V752.4c0 37.9-30.7 68.6-68.6 68.6H151.4c-37.9 0-68.6-30.7-68.6-68.6v-736.7c0-37.9 30.7-68.6 68.6-68.6h295.9v70.5h-294V750.5Z"  horiz-adv-x="1024" />

    
    <glyph glyph-name="phone" unicode="&#58905;" d="M744.657539 893.059553c7.713346-0.596612 15.171002-1.917683 22.458196-4.559824 19.77344-7.287195 36.052437-22.756503 44.23455-42.189021 3.537059-8.309959 5.284281-16.960839 5.966124-25.910025 7.32981-290.166715 0.08523-580.546506 0.085231-870.798452-0.213076-7.670731-1.15061-15.171002-3.451829-22.500812a77.389155 77.389155 0 0 0-43.382247-47.85684 82.162054 82.162054 0 0 0-25.910025-5.923509c-154.266927-3.920596-308.619085-0.08523-462.928628-0.08523a80.713138 80.713138 0 0 0-22.500812 3.451829 77.261309 77.261309 0 0 0-47.814224 43.339631 81.096675 81.096675 0 0 0-5.966124 25.952641c-7.32981 290.166715-0.08523 580.503891-0.085231 870.798452 0.213076 7.670731 1.15061 15.128387 3.451829 22.500811A77.218694 77.218694 0 0 0 252.196596 887.093429c8.309959 3.537059 16.960839 5.284281 25.910025 5.966124 155.460152 3.920596 311.090765 3.920596 466.550918 0z m29.532315-817.827791l-525.615548-0.127846c0.767073-42.274252 1.661992-84.548504 2.727371-126.822756a31.066461 31.066461 0 0 1 29.106164-29.106163c153.926006-3.877981 308.022473-3.877981 461.948478 0a31.109077 31.109077 0 0 1 29.106164 29.106163c1.065379 42.316867 1.960298 84.633734 2.727371 126.950602z m0.767073 45.683465c3.537059 232.38054 2.38645 464.846311-3.494444 697.141621a31.066461 31.066461 0 0 1-29.106164 29.106163c-16.06592 0.426152-32.089226 0.767073-48.11253 0.980149 0-12.3584-0.255691-24.759416-0.255691-37.160431-0.127846-5.539973-0.852303-10.909484-2.47168-16.236381a55.953723 55.953723 0 0 0-31.449998-34.646136c-6.008739-2.55691-12.27317-3.79275-18.793292-4.304132-85.699114-2.173374-171.483457-0.042615-257.267801-0.042615a58.041866 58.041866 0 0 0-16.193766 2.47168 56.081568 56.081568 0 0 0-34.688751 31.407382 60.897083 60.897083 0 0 0-4.304133 18.793292 1315.956552 1315.956552 0 0 0-0.426151 38.907653c-15.341462-0.08523-30.72554-0.08523-46.067003-0.08523a34.859212 34.859212 0 0 1-10.866869-1.875068 31.236922 31.236922 0 0 1-20.156977-27.316326 17203.063631 17203.063631 0 0 1-3.494444-697.141621h527.149694zM648.091556 843.02934H374.672604c0-11.079945-1.278455-22.24512 0.127845-33.239836a9.631029 9.631029 0 0 1 1.022765-3.068292c1.619377-2.812601 4.261517-4.602439 7.457655-5.028591 85.315577-6.477506 171.781764-10.739024 256.671189 0.085231a9.80149 9.80149 0 0 1 8.139498 9.80149v31.449998zM588.472929 827.261725a5.539973 5.539973 0 0 1-5.582588 5.582588h-143.016522a5.539973 5.539973 0 0 1-5.582588-5.582588v-11.12256c0-3.068292 2.514295-5.582588 5.582588-5.582588h143.016522a5.582588 5.582588 0 0 1 5.582588 5.582588v11.12256zM511.38208 3.254734m-40.52703 0a40.52703 40.52703 0 1 1 81.05406 0 40.52703 40.52703 0 1 1-81.05406 0Z"  horiz-adv-x="1024" />

    
    <glyph glyph-name="fence" unicode="&#58914;" d="M506.9 30.600000000000022c-48.2 0-95.1 9.5-139.2 28.1-42.6 18-80.8 43.8-113.6 76.6s-58.6 71-76.6 113.6c-18.6 44.1-28.1 90.9-28.1 139.2s9.5 95.1 28.1 139.2c18 42.6 43.8 80.8 76.6 113.6s71 58.6 113.6 76.6c44.1 18.6 90.9 28.1 139.2 28.1 48.2 0 95.1-9.5 139.2-28.1 42.6-18 80.8-43.8 113.6-76.6s58.6-71 76.6-113.6c18.6-44.1 28.1-90.9 28.1-139.2s-9.5-95.1-28.1-139.2c-18-42.6-43.8-80.8-76.6-113.6s-71-58.6-113.6-76.6c-44.2-18.6-91-28.1-139.2-28.1Zm0 651.5c-78.5 0-152.3-30.6-207.9-86.1s-86.1-129.3-86.1-207.9c0-78.5 30.6-152.3 86.1-207.9 55.5-55.5 129.3-86.1 207.9-86.1s152.3 30.6 207.9 86.1c55.5 55.5 86.1 129.4 86.1 207.9S770.3 540.4 714.8 596c-55.6 55.5-129.4 86.1-207.9 86.1ZM506.9 157.39999999999998c-61.6 0-119.6 24-163.1 67.6-43.6 43.6-67.6 101.5-67.6 163.1s24 119.6 67.6 163.1 101.5 67.6 163.1 67.6 119.6-24 163.1-67.6 67.6-101.5 67.6-163.1-24-119.5-67.6-163.1c-43.6-43.6-101.5-67.6-163.1-67.6Zm0 419.1c-103.9 0-188.4-84.5-188.4-188.4S403 199.70000000000004 506.9 199.70000000000004s188.4 84.5 188.4 188.4-84.6 188.4-188.4 188.4ZM918.1 398H659.9c-5.9 0-10.8 4.8-10.8 10.8s4.8 10.8 10.8 10.8H918c5.9 0 10.8-4.8 10.8-10.8S924 398 918.1 398ZM367.2 398H109.1c-5.9 0-10.8 4.8-10.8 10.8s4.8 10.8 10.8 10.8h258.1c5.9 0 10.8-4.8 10.8-10.8s-4.8-10.8-10.8-10.8ZM109.1 396.4c-5.8 0-10.6 4.7-10.6 10.5s4.7 10.6 10.5 10.6l258.1 1.1c5.8 0 10.6-4.7 10.6-10.5s-4.7-10.6-10.5-10.6l-258.1-1.1ZM515.9 519c-5.8 0-10.6 4.7-10.6 10.5l-1.1 258.1c0 5.8 4.7 10.6 10.5 10.6s10.6-4.7 10.6-10.5l1.1-258.1c0.1-5.8-4.6-10.6-10.5-10.6 0.1 0 0 0 0 0ZM518.4-30.5c-5.8 0-10.6 4.7-10.6 10.5l-1.1 258.1c0 5.8 4.7 10.6 10.5 10.6 5.9 0 10.6-4.7 10.6-10.5l1.1-258.1c0.1-5.8-4.6-10.5-10.5-10.6Z"  horiz-adv-x="1024" />

    
    <glyph glyph-name="car" unicode="&#58970;" d="M842.385 324.961C827.205 437.357 765.242 519.28 688.904 519.28L332.215 519.28c-76.3939 0-138.33-81.8932-153.538-194.291-55.0897-27.8718-83.6532-85.6548-83.6532-152.609 0-51.5388 16.8815-97.5753 49.6836-128.825l0-106.24 132.204 0 0 64.5921 467.267 0 0-64.5921L876.383-62.68399999999997l0 106.24c32.7734 31.2497 49.6846 77.2852 49.6846 128.825C926.038 239.30499999999995 897.475 297.11699999999996 842.385 324.961L842.385 324.961ZM332.182 479.597l356.665 0c50.2525 0 94.2322-59.5707 110.6-140.178-8.1844 1.5237-16.8743 2.39044-25.8139 2.83558 0 0.178055 0.064468 0.327458 0.064468 0.477884 0 46.7937-38.0373 84.8525-84.8505 84.8525-46.8122 0-84.8495-38.0588-84.8495-84.8525L258.329 342.73299999999994c-13.0564 0-25.3094-1.13178-36.84-3.28379C237.893 420.056 281.897 479.597 332.182 479.597L332.182 479.597ZM747.256 342.703L630.53 342.703c0 32.2403 26.1997 58.4113 58.4093 58.4113C721.051 401.115 747.256 374.94399999999996 747.256 342.703L747.256 342.703ZM238.548 116.96000000000003c-30.5293 0-55.3598 24.7661-55.3598 55.3885 0 30.5651 24.8305 55.3967 55.3598 55.3967 30.5928 0 55.4253-24.8029 55.4253-55.3967C293.973 141.66899999999998 269.176 116.96000000000003 238.548 116.96000000000003L238.548 116.96000000000003ZM671.339 126.793L349.661 126.793c-7.3238 0-13.2365 5.94439-13.2365 13.2313 0 7.25831 5.91164 13.1771 13.2365 13.1771l321.677 0c7.32278 0 13.2344-5.9188 13.2344-13.1771C684.572 132.73699999999997 678.661 126.793 671.339 126.793L671.339 126.793ZM671.339 175.27599999999995L349.661 175.27599999999995c-7.3238 0-13.2365 5.94746-13.2365 13.2354 0 7.2931 5.91164 13.1771 13.2365 13.1771l321.677 0c7.32278 0 13.2344-5.90857 13.2344-13.1771C684.572 181.22400000000005 678.661 175.27599999999995 671.339 175.27599999999995L671.339 175.27599999999995ZM782.48 116.96000000000003c-30.5651 0-55.3895 24.7661-55.3895 55.3885 0 30.5651 24.8244 55.3967 55.3895 55.3967 30.5365 0 55.3885-24.8029 55.3885-55.3967C837.841 141.66899999999998 813.016 116.96000000000003 782.48 116.96000000000003L782.48 116.96000000000003ZM718.749 669.735c18.9762-30.3523 52.4056-50.7028 90.8553-50.7314 42.0978 0 78.1264 24.4683 95.7262 59.756l-71.437 0.027629c-25.3023-0.056282-45.8011 21.2131-45.8011 47.5602 0.035816 26.2079 20.5285 47.4773 45.7725 47.5336l71.4084 0c-17.4801 35.2867-53.5732 59.7273-95.7272 59.7549-38.3934 0.029676-71.8228-20.3771-90.8266-50.7867L266.961 782.849c-15.8357 18.221-38.8693 29.902-64.8623 29.902-47.769 0.028653-86.4888-38.6564-86.4591-86.4591 0-47.682 38.6912-86.3752 86.4039-86.4315 25.9899 0 49.0266 11.7967 64.9185 29.8754L718.749 669.736 718.749 669.735ZM179.369 686.851l-22.7716 39.4126 22.8003 39.3748 45.4389 0.058328 22.7645-39.4331-22.7368-39.4126L179.369 686.851 179.369 686.851ZM179.369 686.851"  horiz-adv-x="1024" />

    
    <glyph glyph-name="wifi" unicode="&#59045;" d="M213.333 320c-12.8 0-25.6 4.26667-34.1333 17.0667-17.0667 17.0667-12.8 46.9333 4.26667 59.7333C375.467 554.6669999999999 648.533 554.6669999999999 840.533 396.8c17.0667-17.0667 21.3333-42.6667 4.26667-59.7333s-42.6667-21.3333-59.7333-4.26667c-157.867 132.267-388.267 132.267-546.133 0-4.26667-12.8-17.0667-12.8-25.6-12.8ZM59.7333 469.333c-12.8 0-25.6 4.26667-34.1333 12.8-17.0667 17.0667-12.8 42.6667 4.26667 59.7333 273.067 238.933 686.933 238.933 960 0 17.0667-17.0667 21.3333-42.6667 4.26667-59.7333s-42.6667-21.3333-59.7333-4.26667c-243.2 213.333-605.867 213.333-844.8 0-8.53333-4.26667-17.0667-8.53333-29.8667-8.53333ZM661.333 166.39999999999998c-8.53333 0-17.0667 4.26667-25.6 8.53333-72.5333 51.2-174.933 51.2-247.467 0-21.3333-12.8-46.9333-8.53333-59.7333 8.53333-12.8 21.3333-8.53333 46.9333 8.53333 59.7333 102.4 72.5333 243.2 72.5333 345.6 0 21.3333-12.8 25.6-38.4 8.53333-59.7333-4.26667-12.8-17.0667-17.0667-29.8667-17.0667ZM512 0c-12.8 0-21.3333 4.26667-29.8667 12.8-4.26667 4.26667-8.53333 8.53333-8.53333 12.8 0 4.26667-4.26667 12.8-4.26667 17.0667 0 12.8 4.26667 21.3333 12.8 29.8667s25.6 12.8 38.4 12.8c4.26667 0 4.26667 0 8.53333-4.26667 4.26667 0 4.26667 0 8.53333-4.26667l4.26667-4.26667c8.53333-8.53333 12.8-21.3333 12.8-29.8667 0-4.26667 0-12.8-4.26667-17.0667s-4.26667-8.53333-8.53333-12.8c-8.53333-8.53333-17.0667-12.8-29.8667-12.8Z"  horiz-adv-x="1024" />

    
    <glyph glyph-name="close1" unicode="&#58922;" d="M934.185 696.2760000000001L622.457 384.547l311.728-311.703c14.3345-14.2291 23.0694-33.9513 23.0694-55.7436 0-43.4301-35.1782-78.6605-78.7352-78.6605-21.6644 0-41.361 8.86592-55.6423 23.0694L511.149 273.16200000000003 199.42-38.49000000000001c-14.2045-14.2035-33.9011-23.0694-55.6423-23.0694-43.4823 0-78.7373 35.2304-78.7373 78.6605 0 21.7923 8.8649 41.5135 23.095 55.7436l311.678 311.703L88.1358 696.2760000000001c-14.2301 14.2557-23.095 33.9257-23.095 55.6423 0 43.4301 35.2549 78.7629 78.7373 78.7629 21.7412 0 41.4378-8.81374 55.6423-23.0694l311.728-311.728L822.877 807.6109c14.2813 14.2557 33.9779 23.0694 55.6423 23.0694 43.557 0 78.7352-35.3327 78.7352-78.7629C957.254 730.202 948.519 710.532 934.185 696.2760000000001"  horiz-adv-x="1024" />

    
    <glyph glyph-name="quit" unicode="&#58908;" d="M562.972 341.33299999999997c0-28.1031-22.8693-50.9724-51.0293-50.9724-28.2169 0-50.9724 22.7556-50.9724 50.9724L460.971 783.474c0 28.1031 22.8693 50.9724 50.9724 50.9724s51.0293-22.8693 51.0293-50.9724L562.972 341.33299999999997 562.972 341.33299999999997ZM84.5938 360.562c0 152.576 80.5547 286.663 201.102 361.813 23.6089 15.0187 55.1253 7.85067 69.9733-16.0427C370.631 682.3820000000001 363.463 651.0360000000001 339.627 636.1320000000001 247.694 578.389 186.652 476.956 186.652 360.67600000000004c0.398222-179.598 145.636-324.892 325.291-325.234 179.598 0.455111 324.779 145.692 325.12 325.234 0 119.012-64.2276 222.663-159.801 279.552-24.2916 14.3929-32.256 45.7387-17.92 69.9733 14.4498 24.1778 45.7956 32.1422 70.0302 17.8062 125.326-74.0124 209.977-210.83 209.977-367.275 0-235.918-191.26-427.236-427.292-427.236C275.911-66.78800000000001 84.5938 124.41600000000005 84.5938 360.562"  horiz-adv-x="1024" />

    
    <glyph glyph-name="setting" unicode="&#59053;" d="M914.937486 251.760742 885.963356 251.760742C881.304972 238.604644 875.929912 225.678906 869.914965 213.08591L890.416977 192.583898C932.956733 150.044142 932.956733 80.808259 890.416977 38.268503L857.731497 5.608618C837.127103-14.995776 809.739896-26.334591 780.586597-26.334591 751.458895-26.334591 724.046092-14.995776 703.441698 5.608618L682.939686 26.110631C670.346689 20.070088 657.395356 14.720624 644.264854 10.087835L644.264854-18.91189C644.264854-79.061364 595.300622-128 535.151149-128L488.951234-128C428.776164-128 379.837528-79.061364 379.837528-18.91189L379.837528 10.087835C366.681431 14.720624 353.755693 20.070088 341.137101 26.110631L320.635089 5.608618C300.05629-14.995776 272.643487-26.334591 243.490189-26.334591 214.362487-26.334591 186.949684-14.995776 166.34529 5.608618L133.65981 38.268503C91.14565 80.833854 91.14565 150.044142 133.65981 192.583898L154.161822 213.08591C148.146874 225.678906 142.79741 238.604644 138.139026 251.760742L109.164896 251.760742C48.989827 251.760742 0.051191 300.724973 0.051191 360.874447L0.051191 407.099958C0.051191 467.249431 48.989827 516.188067 109.164896 516.188067L138.139026 516.188067C142.79741 529.36976 148.146874 542.269903 154.161822 554.888495L133.65981 575.364911C113.081011 595.969305 101.7166 623.382108 101.7166 652.535406 101.7166 681.663109 113.081011 709.075912 133.65981 729.680306L166.34529 762.34019C186.949684 782.944585 214.362487 794.308996 243.490189 794.308996 272.643487 794.308996 300.05629 782.944585 320.635089 762.34019L341.137101 741.838178C353.755693 747.853126 366.655835 753.228185 379.837528 757.88657L379.837528 786.860699C379.837528 847.010173 428.776164 895.974404 488.951234 895.974404L535.151149 895.974404C595.300622 895.974404 644.264854 847.010173 644.264854 786.860699L644.264854 757.88657C657.395356 753.228185 670.346689 747.878721 682.939686 741.838178L703.441698 762.34019C724.046092 782.944585 751.458895 794.308996 780.586597 794.308996 809.739896 794.308996 837.127103 782.944585 857.731497 762.34019L890.416977 729.680306C911.021371 709.075912 922.360187 681.663109 922.360187 652.535406 922.360187 623.382108 911.021371 595.969305 890.416977 575.364911L869.914965 554.888495C875.955508 542.269903 881.304972 529.344165 885.963356 516.188067L914.937486 516.188067C975.08696 516.188067 1024.025596 467.249431 1024.025596 407.099958L1024.025596 360.874447C1024.025596 300.724973 975.08696 251.760742 914.937486 251.760742ZM976.5715 407.099958C976.5715 441.065214 948.902742 468.733972 914.937486 468.733972L868.788762 468.733972C858.345789 468.733972 849.131402 475.567976 846.085535 485.550229 839.507486 507.178444 830.753818 528.294748 820.05489 548.336041 815.14055 557.550429 816.804259 568.889244 824.201365 576.28635L856.861249 608.920639C868.481616 620.566601 874.906091 636.051891 874.906091 652.535406 874.906091 668.993326 868.481616 684.478616 856.861249 696.124578L824.175769 728.784463C800.883845 752.050791 760.289349 752.050791 736.997425 728.784463L704.337541 696.150174C696.966031 688.727473 685.652811 687.038168 676.361637 692.003699 656.371535 702.677032 635.280826 711.4307 613.627015 718.008748 603.619167 721.02902 596.785163 730.269003 596.785163 740.711975L596.785163 786.860699C596.785163 820.851551 569.142 848.494713 535.151149 848.494713L488.951234 848.494713C454.934786 848.494713 427.291624 820.851551 427.291624 786.860699L427.291624 740.711975C427.291624 730.269003 420.45762 721.054615 410.475367 718.008748 388.770365 711.4307 367.679656 702.651436 347.71515 692.003699 338.500762 687.063764 327.136351 688.753068 319.739246 696.150174L287.079361 728.784463C263.787437 752.050791 223.192941 752.050791 199.901017 728.784463L167.241133 696.124578C155.595171 684.478616 149.170695 668.993326 149.170695 652.535406 149.170695 636.051891 155.595171 620.566601 167.241133 608.920639L199.875422 576.28635C207.272527 568.889244 208.961832 557.550429 204.021896 548.310446 193.348564 528.345939 184.594896 507.229635 178.016847 485.550229 174.97098 475.567976 165.756593 468.733972 155.31362 468.733972L109.164896 468.733972C75.174045 468.733972 47.530882 441.065214 47.530882 407.099958L47.530882 360.874447C47.530882 326.883595 75.174045 299.240433 109.164896 299.240433L155.31362 299.240433C165.756593 299.240433 174.97098 292.406429 178.016847 282.39858 184.620491 260.693579 193.348564 239.602869 204.021896 219.638363 208.961832 210.423976 207.272527 199.059565 199.875422 191.688055L167.241133 159.02817C143.206939 134.993976 143.206939 95.88402 167.241133 71.849826L199.901017 39.164346C223.192941 15.898018 263.787437 15.898018 287.079361 39.164346L319.739246 71.824231C324.295248 76.380233 330.386982 78.760617 336.529907 78.760617 340.34364 78.760617 344.182968 77.839178 347.71515 75.970705 367.730847 65.271777 388.847152 56.518109 410.449771 49.965656 420.45762 46.919789 427.291624 37.705402 427.291624 27.236834L427.291624-18.91189C427.291624-52.902742 454.934786-80.545904 488.951234-80.545904L535.151149-80.545904C569.142-80.545904 596.785163-52.902742 596.785163-18.91189L596.785163 27.236834C596.785163 37.705402 603.619167 46.919789 613.627015 49.965656 635.25523 56.518109 656.371535 65.271777 676.387232 75.970705 685.576024 80.910641 696.940435 79.221336 704.337541 71.824231L736.997425 39.164346C760.289349 15.898018 800.883845 15.898018 824.175769 39.164346L856.861249 71.849826C880.869848 95.88402 880.869848 134.993976 856.861249 159.02817L824.201365 191.688055C816.804259 199.059565 815.14055 210.423976 820.05489 219.638363 830.753818 239.628465 839.507486 260.74477 846.085535 282.39858 849.131402 292.406429 858.345789 299.240433 868.788762 299.240433L914.937486 299.240433C948.902742 299.240433 976.5715 326.883595 976.5715 360.874447L976.5715 407.099958ZM512.038393 208.529907C415.287325 208.529907 336.581098 287.236134 336.581098 383.987202 336.581098 480.712675 415.287325 559.418902 512.038393 559.418902 608.789462 559.418902 687.495688 480.712675 687.495688 383.987202 687.495688 287.236134 608.789462 208.529907 512.038393 208.529907ZM512.038393 511.964806C441.471542 511.964806 384.060789 454.554053 384.060789 383.987202 384.060789 313.420351 441.471542 256.009598 512.038393 256.009598 582.63084 256.009598 640.041593 313.420351 640.041593 383.987202 640.041593 454.554053 582.63084 511.964806 512.038393 511.964806Z"  horiz-adv-x="1025" />

    
    <glyph glyph-name="minus" unicode="&#58960;" d="M840.71 448h-657.913c-30.222 0-54.722-28.654-54.722-64 0-35.347 24.5-64 54.722-64h657.913c30.222 0 54.722 28.653 54.722 64 0 35.346-24.5 64-54.722 64z"  horiz-adv-x="1024" />

    
    <glyph glyph-name="lock" unicode="&#58896;" d="M831.508941 512.176264h-63.960731v63.960731c0 141.29812-114.544803 255.842922-255.842922 255.842923S255.863389 717.434092 255.863389 576.136995v-63.960731h-63.964824c-35.322483 0-63.956637-28.634154-63.956638-63.956637V0.491443c0-35.322483 28.634154-63.956637 63.956638-63.956638h639.610376c35.322483 0 63.956637 28.634154 63.956637 63.956638V448.219627c0 35.32146-28.634154 63.956637-63.956637 63.956637z m-511.684822 63.960731c0 105.97359 85.908602 191.882192 191.882192 191.882192S703.588503 682.110585 703.588503 576.136995v-63.960731H319.824119v63.960731z m511.684822-543.924083c0-17.520025-14.202467-31.722492-31.722492-31.722493H223.62515c-17.520025 0-31.722492 14.202467-31.722492 31.722493V416.493042c0 17.520025 14.202467 31.722492 31.722492 31.722492h576.161299c17.520025 0 31.722492-14.202467 31.722492-31.722492v-384.28013zM511.706311 384.254803c-70.64906 0-127.921461-57.272401-127.921461-127.921461 0-59.605539 40.766472-109.689215 95.939049-123.890658v-36.269042c0-17.520025 14.202467-31.722492 31.722492-31.722492h0.515747c17.520025 0 31.722492 14.202467 31.722492 31.722492v36.268019c55.174624 14.20042 95.943143 64.285119 95.943142 123.891681 0 70.64906-57.272401 127.921461-127.921461 127.921461z m0-191.882192c-35.32453 0-63.960731 28.636201-63.960731 63.960731 0 35.32453 28.636201 63.960731 63.960731 63.960731 35.32453 0 63.960731-28.636201 63.960731-63.960731 0-35.32453-28.636201-63.960731-63.960731-63.960731z"  horiz-adv-x="1024" />

    
    <glyph glyph-name="user" unicode="&#58940;" d="M950.857143 3.657143c-43.885714 131.657143-153.6 234.057143-277.942857 277.942857 73.142857 51.2 131.657143 146.285714 131.657143 248.685714 0 160.914286-131.657143 292.571429-292.571429 292.571429S219.428571 691.2 219.428571 530.285714c0-102.4 58.514286-197.485714 138.971429-248.685714-131.657143-43.885714-234.057143-146.285714-285.257143-277.942857-7.314286-21.942857 0-43.885714 21.942857-51.2 21.942857-7.314286 43.885714 0 51.2 29.257143 65.828571 146.285714 204.8 256 365.714286 256s299.885714-109.714286 358.4-263.314286c7.314286-14.628571 21.942857-29.257143 36.571429-29.257143h14.628571c21.942857 7.314286 36.571429 36.571429 29.257143 58.514286zM292.571429 530.285714c0 124.342857 95.085714 219.428571 219.428571 219.428572s219.428571-95.085714 219.428571-219.428572-95.085714-219.428571-219.428571-219.428571-219.428571 95.085714-219.428571 219.428571z"  horiz-adv-x="1024" />

    
    <glyph glyph-name="window" unicode="&#59478;" d="M896 725.333333H128a42.666667 42.666667 0 0 1-42.666667-42.666666v-597.333334a42.666667 42.666667 0 0 1 42.666667-42.666666h768a42.666667 42.666667 0 0 1 42.666667 42.666666V682.666667a42.666667 42.666667 0 0 1-42.666667 42.666666z m-42.666667-597.333333H170.666667V554.666667h682.666666v-426.666667z"  horiz-adv-x="1024" />

    
    <glyph glyph-name="windows" unicode="&#59480;" d="M896 768H298.666667v-85.333333h554.666666v-469.333334h85.333334V725.333333a42.666667 42.666667 0 0 1-42.666667 42.666667zM128 0h597.333333a42.666667 42.666667 0 0 1 42.666667 42.666667V554.666667a42.666667 42.666667 0 0 1-42.666667 42.666666H128a42.666667 42.666667 0 0 1-42.666667-42.666666v-512a42.666667 42.666667 0 0 1 42.666667-42.666667z m42.666667 426.666667h512v-341.333334H170.666667v341.333334z"  horiz-adv-x="1024" />

    
    <glyph glyph-name="alarm" unicode="&#58961;" d="M860.16 122.8288A228.6592 228.6592 0 0 0 768 307.2v153.6a282.112 282.112 0 0 1-204.8 270.9504V768c0 42.3424-34.4576 76.8-76.8 76.8S409.6 810.3424 409.6 768v-36.2496A282.112 282.112 0 0 1 204.8 460.8v-153.6a228.7616 228.7616 0 0 0-92.16-184.3712 25.6 25.6 0 0 1 15.36-46.08h232.96a128.1536 128.1536 0 0 1 125.3888-153.6 128.1536 128.1536 0 0 1 125.44 153.6h232.96a25.6 25.6 0 0 1 15.36 46.08zM460.8 768a25.6 25.6 0 0 0 51.2 0v-26.7776a282.0096 282.0096 0 0 1-51.2 0V768z m102.4-716.8c0-42.3424-34.4576-76.8-76.8-76.8a76.9024 76.9024 0 0 0-72.3968 102.4h144.7936c2.8672-8.192 4.4032-16.8448 4.4032-25.6zM191.5904 128c13.056 15.8208 24.4224 33.0752 33.7408 51.2512A278.272 278.272 0 0 1 256 307.2v153.6C256 587.8272 359.3728 691.2 486.4 691.2S716.8 587.8272 716.8 460.8v-153.6a278.9376 278.9376 0 0 1 64.4096-179.2H191.5392z"  horiz-adv-x="1024" />

    
    <glyph glyph-name="feedback" unicode="&#58931;" d="M322.197 628.736h379.477a27.52 27.52 0 0 1 27.2427 27.7973 27.52 27.52 0 0 1-27.2427 27.7973H322.197a27.4773 27.4773 0 0 1-27.2213-27.7973c0-15.2747 12.1173-27.7973 27.2213-27.7973m0-154.155h270.464c15.0827 0 27.0933 12.416 27.0933 27.776 0 15.36-12.0107 27.776-27.0933 27.776H322.197c-15.104 0-27.2213-12.416-27.2213-27.776 0-15.36 12.1173-27.776 27.2213-27.776m618.325 87.0827l-68.2453 40.4053V867.9253a27.8613 27.8613 0 0 1-27.584 28.096H179.051c-15.2107 0-27.5627-12.5227-27.5627-28.096v-265.856l-68.3093-40.4053-54.3787-27.776v-634.219c0-3.88267 0.725333-7.44533 2.15467-10.752 0.106667-0.341333 0.32-0.576 0.426666-0.768 0.725333-1.64267 1.62133-3.17867 2.688-4.608 4.75733-6.656 12.288-11.0933 21.0133-11.4133 0.341333 0 0.618667-0.106667 0.938666-0.106667h911.787c15.0613 0 27.2213 12.4373 27.2213 27.6693V531.264l-54.5067 30.4m-68.2453-23.8293l64.192-37.9733-64.192-37.9947v75.968M223.552 840.5547H800.213c13.5893 0 17.664-4.16 17.664-18.0053v-393.003l-305.984-181.163L205.845 429.653V822.5493c0 13.8453 4.20267 18.0053 17.7067 18.0053M151.488 461.824l-64.2133 38.016 64.2133 37.9733v-75.9893m789.035-534.4H83.1787V438.016l415.019-245.739c0.448-0.341333 0.853333-0.448 1.30133-0.64l1.81333-0.853333c0.981333-0.469333 1.984-0.874667 3.008-1.19467a9.81333 9.81333 0 0 1 2.048-0.469333 12.6507 12.6507 0 0 1 3.008-0.448h5.184c0.96 0.106667 2.048 0.341333 2.98667 0.448 0.661333 0.234667 1.38667 0.32 2.048 0.469333 1.10933 0.298667 2.048 0.725333 3.15733 1.19467 0.618667 0.341333 1.152 0.554667 1.81333 0.853333 0.426667 0.213333 0.853333 0.32 1.28 0.64l414.656 245.888v-510.741"  horiz-adv-x="1024" />

    
    <glyph glyph-name="voice" unicode="&#58964;" d="M787.909973 13.847893c-3.23584-1.672533-7.31136-2.392747-12.21632-2.392746-10.656427 0-19.64032 5.751467-24.548693 15.571626-3.2256 6.587733-4.06528 13.888853-1.672533 20.473174 2.392747 6.59456 7.307947 12.21632 13.888853 15.57504 125.740373 62.153387 203.339093 183.821653 203.339093 316.2624 0 138.909013-87.299413 266.451627-222.02368 325.24288-6.58432 3.232427-11.373227 8.147627-14.72512 14.728533-2.392747 6.591147-2.392747 13.888853 0 21.1968 4.068693 9.82016 13.888853 16.285013 25.265494 16.285013 4.068693 0 7.307947-0.83968 10.656426-2.399573C920.95488 687.332693 1020.586667 540.276053 1020.586667 379.327147c0-153.87648-88.97536-293.628587-232.676694-365.479254z m47.418027 354.587307c0-125.023573-94.723413-224.65536-212.319573-224.65536-14.72512 0-26.944853 12.212907-26.944854 26.948267 0 14.728533 12.212907 26.948267 26.944854 26.948266 87.299413 0 158.43328 76.755627 158.43328 171.60192 0 94.839467-71.0144 171.598507-158.43328 171.598507-14.72512 0-26.944853 12.212907-26.944854 26.948267s12.212907 26.948267 26.944854 26.948266c117.599573 0.105813 212.319573-101.321387 212.319573-226.338133z m-314.34752-415.901013c-13.052587 0-26.098347 6.591147-37.60128 17.964373L231.185067 223.894187H73.591467c-38.324907 0-70.178133 31.853227-70.178134 70.2976v178.906453c0 39.28064 31.85664 71.133867 70.178134 71.133867h156.75392l252.20096 253.27616c11.37664 11.48928 24.548693 17.96096 37.60128 17.96096 23.709013 0 39.99744-20.476587 39.99744-49.8176v-763.17696c0.836267-29.46048-15.45216-49.94048-39.164587-49.94048zM506.25536 742.775467l-253.037227-253.392214H73.591467a16.30208 16.30208 0 0 1-16.285014-16.285013v-178.189653a16.30208 16.30208 0 0 1 16.285014-16.285014h179.626666l253.037227-253.272746V742.775467z"  horiz-adv-x="1024" />

    
    <glyph glyph-name="location" unicode="&#58893;" d="M512 421.5c57.6 0 104.5 46.9 104.5 104.5S569.6 630.5 512 630.5 407.5 583.6 407.5 526 454.4 421.5 512 421.5Zm0 159c30.1 0 54.5-24.4 54.5-54.5s-24.4-54.5-54.5-54.5-54.5 24.4-54.5 54.5 24.4 54.5 54.5 54.5ZM434.1 190.5c30.8-33.4 55.6-49 77.9-49s47.1 15.6 77.9 49c24.1 26.1 50.9 62.7 75.4 103.1 21.3 34.9 90.6 155.8 90.6 243.9 0 65.2-25.4 126.4-71.5 172.5-46.1 46.1-107.4 71.5-172.5 71.5S385.6 756.1 339.5 710C293.4 663.9 268 602.7 268 537.5c0-88.1 69.4-208.9 90.6-243.9 24.6-40.3 51.4-77 75.5-103.1ZM318 537.5c0 107 87 194 194 194s194-87 194-194c0-24.8-8.1-58.9-23.5-98.5-14.5-37.2-34.6-77.5-58.2-116.7-22.5-37.3-46.9-71.2-68.8-95.4-28.7-31.8-41.9-35.2-43.5-35.5-1.6 0.3-14.8 3.7-43.5 35.5-21.8 24.2-46.3 58.1-68.8 95.4-23.6 39.1-43.7 79.5-58.2 116.7-15.4 39.6-23.5 73.7-23.5 98.5ZM908.4 45.5l-39.9 249c-5 31.3-31.6 54-63.3 54H745c-13.8 0-25-11.2-25-25s11.2-25 25-25h60.2c7 0 12.8-5 13.9-11.9l39.9-249c0-0.2 0.1-0.4-0.2-0.8-0.3-0.3-0.6-0.3-0.7-0.3H166c-0.2 0-0.5 0-0.7 0.3-0.3 0.3-0.2 0.6-0.2 0.8l39.9 249c1.1 6.9 7 11.9 13.9 11.9H279c13.8 0 25 11.2 25 25s-11.2 25-25 25h-60.2c-31.7 0-58.3-22.7-63.3-54l-39.9-249c-2.4-14.8 1.8-29.8 11.5-41.1 9.7-11.4 23.8-17.9 38.8-17.9h692c15 0 29.1 6.5 38.8 17.9 9.8 11.4 14 26.4 11.7 41.1Z"  horiz-adv-x="1024" />

    
    <glyph glyph-name="sos" unicode="&#59128;" d="M238.4 387.392a158.336 158.336 0 0 1-78.336 20.608A112.32 112.32 0 0 0 47.872 520.192c0 61.888 50.368 112.256 112.192 112.256 56.256 0 102.784-41.664 110.848-95.744h48.448a160.384 160.384 0 0 1-159.296 143.552A160.32 160.32 0 0 1 0 520.128a160.192 160.192 0 0 1 160.064-160.064c61.888 0 112.192-50.368 112.192-112.32 0-61.76-50.368-112.128-112.192-112.128-51.776 0-95.36 35.264-108.224 83.136H2.688a160.256 160.256 0 0 1 157.376-131.008 160.192 160.192 0 0 1 160.064 160 160 160 0 0 1-81.728 139.648zM942.208 387.392a158.08 158.08 0 0 1-78.336 20.544 112.32 112.32 0 0 0-112.192 112.192c0 61.888 50.304 112.256 112.192 112.256 56.256 0 102.848-41.664 110.848-95.744h48.384a160.256 160.256 0 0 1-159.232 143.616 160.32 160.32 0 0 1-160.064-160.128 160.32 160.32 0 0 1 160.064-160.064c61.888 0 112.256-50.368 112.256-112.32 0-61.76-50.368-112.128-112.256-112.128a112.256 112.256 0 0 0-108.224 83.136h-49.152a160.256 160.256 0 0 1 157.376-131.008 160.192 160.192 0 0 1 160.128 160c0 59.904-33.024 112.256-81.792 139.648zM509.312 89.152c-87.04 0-157.888 67.008-157.888 149.376V530.176c0 82.432 70.848 149.44 157.888 149.44s157.888-67.008 157.888-149.44v-291.648c0.064-82.432-70.848-149.376-157.888-149.376z m0 542.592c-60.672 0-110.016-45.568-110.016-101.568v-291.648c0-56 49.344-101.504 110.016-101.504s110.016 45.504 110.016 101.504V530.176c0.064 56-49.344 101.568-110.016 101.568z"  horiz-adv-x="1024" />

    
    <glyph glyph-name="loading" unicode="&#59537;" d="M876.864 113.408c3.264 0 6.272 3.2 6.272 6.656 0 3.456-3.008 6.592-6.272 6.592-3.264 0-6.272-3.2-6.272-6.592 0-3.456 3.008-6.656 6.272-6.656z m-140.544-153.344c2.304-2.432 5.568-3.84 8.768-3.84a12.16 12.16 0 0 1 8.832 3.84 13.76 13.76 0 0 1 0 18.56 12.224 12.224 0 0 1-8.832 3.84 12.16 12.16 0 0 1-8.768-3.84 13.696 13.696 0 0 1 0-18.56zM552.32-122.24c3.456-3.648 8.32-5.76 13.184-5.76a18.368 18.368 0 0 1 13.184 5.76 20.608 20.608 0 0 1 0 27.968 18.368 18.368 0 0 1-13.184 5.824 18.368 18.368 0 0 1-13.184-5.76 20.608 20.608 0 0 1 0-28.032z m-198.336 5.76c4.608-4.8 11.072-7.68 17.6-7.68a24.448 24.448 0 0 1 17.536 7.68 27.456 27.456 0 0 1 0 37.248 24.448 24.448 0 0 1-17.536 7.68 24.448 24.448 0 0 1-17.6-7.68 27.52 27.52 0 0 1 0-37.184z m-175.68 91.84c5.76-6.08 13.824-9.6 21.952-9.6a30.592 30.592 0 0 1 22.016 9.6 34.368 34.368 0 0 1 0 46.592 30.592 30.592 0 0 1-22.016 9.6 30.592 30.592 0 0 1-21.952-9.6 34.368 34.368 0 0 1 0-46.592z m-121.152 159.36c6.912-7.36 16.64-11.648 26.368-11.648a36.736 36.736 0 0 1 26.432 11.584 41.28 41.28 0 0 1 0 55.936 36.736 36.736 0 0 1-26.432 11.584 36.8 36.8 0 0 1-26.368-11.52 41.28 41.28 0 0 1 0-56zM12.736 331.328a42.88 42.88 0 0 1 30.784-13.44 42.88 42.88 0 0 1 30.784 13.44 48.128 48.128 0 0 1 0 65.216 42.88 42.88 0 0 1-30.72 13.44 42.88 42.88 0 0 1-30.848-13.44 48.128 48.128 0 0 1 0-65.216z m39.808 195.392a48.96 48.96 0 0 1 35.2-15.36 48.96 48.96 0 0 1 35.2 15.36 54.976 54.976 0 0 1 0 74.56 48.96 48.96 0 0 1-35.2 15.424 48.96 48.96 0 0 1-35.2-15.424 54.976 54.976 0 0 1 0-74.56zM168.32 683.52c10.368-11.008 24.96-17.408 39.68-17.408 14.592 0 29.184 6.4 39.552 17.408a61.888 61.888 0 0 1 0 83.84 55.104 55.104 0 0 1-39.616 17.408c-14.656 0-29.248-6.4-39.616-17.408a61.888 61.888 0 0 1 0-83.84zM337.344 771.2c11.52-12.16 27.712-19.264 43.968-19.264 16.256 0 32.448 7.04 43.968 19.264a68.672 68.672 0 0 1 0 93.184 61.248 61.248 0 0 1-43.968 19.264 61.248 61.248 0 0 1-43.968-19.264 68.736 68.736 0 0 1 0-93.184z m189.632 1.088c12.672-13.44 30.528-21.248 48.448-21.248s35.712 7.808 48.384 21.248a75.584 75.584 0 0 1 0 102.464A67.392 67.392 0 0 1 575.36 896c-17.92 0-35.776-7.808-48.448-21.248a75.584 75.584 0 0 1 0-102.464z m173.824-86.592c13.824-14.592 33.28-23.104 52.736-23.104 19.584 0 39.04 8.512 52.8 23.104a82.432 82.432 0 0 1 0 111.744 73.472 73.472 0 0 1-52.8 23.168c-19.52 0-38.912-8.512-52.736-23.168a82.432 82.432 0 0 1 0-111.744z m124.032-158.528c14.976-15.872 36.032-25.088 57.216-25.088 21.12 0 42.24 9.216 57.152 25.088a89.344 89.344 0 0 1 0 121.088 79.616 79.616 0 0 1-57.152 25.088c-21.184 0-42.24-9.216-57.216-25.088a89.344 89.344 0 0 1 0-121.088z m50.432-204.032c16.128-17.088 38.784-27.008 61.632-27.008 22.784 0 45.44 9.92 61.568 27.008a96.256 96.256 0 0 1 0 130.432 85.76 85.76 0 0 1-61.568 27.072c-22.848 0-45.44-9.984-61.632-27.072a96.192 96.192 0 0 1 0-130.432z"  horiz-adv-x="1024" />

    
    <glyph glyph-name="dot" unicode="&#58952;" d="M515.2 844.8C256 844.8 44.8 632 44.8 372.79999999999995S256-97.60000000000002 515.2-97.60000000000002s470.4 211.2 470.4 470.4S774.4 844.8 515.2 844.8ZM515.2-49.60000000000002c-233.6 0-422.4 190.4-422.4 422.4S281.6 796.8 515.2 796.8s422.4-190.4 422.4-422.4S748.8-49.60000000000002 515.2-49.60000000000002ZM515.2 372.79999999999995m-374.4 0a23.4 23.4 0 1 1 748.8 0 23.4 23.4 0 1 1-748.8 0Z"  horiz-adv-x="1024" />

    
    <glyph glyph-name="riqi2" unicode="&#59031;" d="M805.49888-85.49888l-602.3168 0.76288c-86.59456 8.192-154.56768 81.3056-154.56768 170.01472L48.6144 604.26752c0 94.1568 76.60032 170.75712 170.7776 170.75712l586.10176 0c94.1568 0 170.73152-76.60032 170.73152-170.75712L976.22528 85.2992C976.2304-8.87296 899.63008-85.49888 805.49888-85.49888L805.49888-85.49888zM219.3664 705.42848c-55.79776 0-101.20192-45.38368-101.20192-101.18144l0-518.96832c0-55.79776 45.40416-101.20704 101.20192-101.20704l586.13248 0c55.77728 0 101.16096 45.40928 101.16096 101.20704L906.65984 604.26752c0 55.79776-45.38368 101.18656-101.16096 101.18656L219.3664 705.45408 219.3664 705.42848zM698.84416 605.48096c-25.60512 0-46.38208 20.77696-46.38208 46.38208l0 158.6688c0 25.6 20.77696 46.38208 46.38208 46.38208 25.6 0 46.38208-20.78208 46.38208-46.38208L745.22624 651.8784C745.22624 626.2528 724.46976 605.48096 698.84416 605.48096L698.84416 605.48096zM315.65824 605.48096c-25.60512 0-46.38208 20.77696-46.38208 46.38208l0 158.6688c0 25.6 20.77696 46.38208 46.38208 46.38208 25.6 0 46.38208-20.78208 46.38208-46.38208L362.04032 651.8784C362.04032 626.2528 341.28896 605.48096 315.65824 605.48096L315.65824 605.48096zM534.8864 101.21216l-44.27264 0c-25.6 0-46.38208 20.77696-46.38208 46.38208 0 25.6 20.78208 46.38208 46.38208 46.38208l44.27264 0c25.6 0 46.38208-20.78208 46.38208-46.38208C581.26848 121.98912 560.4864 101.21216 534.8864 101.21216L534.8864 101.21216zM930.79552 443.392 121.24672 443.392c-25.60512 0-46.38208 20.78208-46.38208 46.38208 0 25.60512 20.77696 46.38208 46.38208 46.38208l809.5744 0c25.6 0 46.38208-20.77696 46.38208-46.38208C977.2032 464.17408 956.42624 443.392 930.79552 443.392L930.79552 443.392zM327.92576 246.96832l-44.27264 0c-25.6 0-46.38208 20.78208-46.38208 46.38208 0 25.60512 20.78208 46.38208 46.38208 46.38208l44.27264 0c25.6 0 46.38208-20.77696 46.38208-46.38208C374.30784 267.74528 353.52576 246.96832 327.92576 246.96832L327.92576 246.96832zM534.8864 246.96832l-44.27264 0c-25.6 0-46.38208 20.78208-46.38208 46.38208 0 25.60512 20.78208 46.38208 46.38208 46.38208l44.27264 0c25.6 0 46.38208-20.77696 46.38208-46.38208S560.4864 246.96832 534.8864 246.96832L534.8864 246.96832zM741.27872 246.96832l-44.26752 0c-25.60512 0-46.38208 20.78208-46.38208 46.38208 0 25.60512 20.77696 46.38208 46.38208 46.38208l44.26752 0c25.60512 0 46.38208-20.77696 46.38208-46.38208C787.6608 267.74528 766.90944 246.96832 741.27872 246.96832L741.27872 246.96832zM327.92576 101.21216l-44.27264 0c-25.6 0-46.38208 20.77696-46.38208 46.38208 0 25.6 20.78208 46.38208 46.38208 46.38208l44.27264 0c25.6 0 46.38208-20.78208 46.38208-46.38208C374.30784 121.98912 353.52576 101.21216 327.92576 101.21216L327.92576 101.21216zM741.27872 101.21216l-44.26752 0c-25.60512 0-46.38208 20.77696-46.38208 46.38208 0 25.6 20.77696 46.38208 46.38208 46.38208l44.26752 0c25.60512 0 46.38208-20.78208 46.38208-46.38208C787.6608 121.98912 766.90944 101.21216 741.27872 101.21216L741.27872 101.21216z"  horiz-adv-x="1024" />

    
    <glyph glyph-name="datetime" unicode="&#58959;" d="M590.579 69.19899999999995L270.514 69.19899999999995c-71.9712 0-130.524 58.5536-130.524 130.525L139.99 548.427c0 71.9701 58.5526 130.522 130.524 130.522l393.915 0c71.9701 0 130.523-58.5515 130.523-130.522l0-200.692c0-14.1288-11.4539-25.5827-25.5827-25.5827-14.1298 0-25.5827 11.4539-25.5827 25.5827L743.786 548.427c0 43.7576-35.5998 79.3564-79.3574 79.3564L270.514 627.783c-43.7586 0-79.3584-35.5998-79.3584-79.3564l0-348.703c0-43.7586 35.5998-79.3594 79.3584-79.3594l320.066 0c14.1288 0 25.5827-11.4528 25.5827-25.5827C616.162 80.65300000000002 604.708 69.19899999999995 590.579 69.19899999999995ZM769.368 426.536L165.572 426.536c-14.1288 0-25.5827 11.4539-25.5827 25.5827s11.4539 25.5827 25.5827 25.5827l603.796 0c14.1288 0 25.5827-11.4539 25.5827-25.5827S783.496 426.536 769.368 426.536ZM725.044-0.6369999999999436c-104.78 0-190.025 85.2455-190.025 190.026 0 104.78 85.2455 190.024 190.025 190.024 104.779 0 190.023-85.2445 190.023-190.024C915.068 84.60799999999995 829.823-0.6369999999999436 725.044-0.6369999999999436ZM725.044 328.24699999999995c-76.5668 0-138.86-62.2917-138.86-138.859 0-76.5679 62.2927-138.861 138.86-138.861 76.5658 0 138.858 62.2927 138.858 138.861C863.902 265.956 801.61 328.24699999999995 725.044 328.24699999999995ZM793.064 163.80600000000004l-68.0222 0c-14.1288 0-25.5827 11.4539-25.5827 25.5827l0 70.6603c0 14.1288 11.4539 25.5827 25.5827 25.5827s25.5827-11.4539 25.5827-25.5827l0-45.0777 42.4396 0c14.1288 0 25.5827-11.4539 25.5827-25.5827S807.193 163.80600000000004 793.064 163.80600000000004ZM299.971 630.441c-14.1288 0-25.5827 11.4539-25.5827 25.5827L274.389 761.374c0 14.1288 11.4539 25.5827 25.5827 25.5827s25.5827-11.4539 25.5827-25.5827l0-105.35C325.554 641.895 314.1 630.441 299.971 630.441ZM634.972 630.441c-14.1298 0-25.5827 11.4539-25.5827 25.5827L609.39 761.374c0 14.1288 11.4528 25.5827 25.5827 25.5827s25.5827-11.4539 25.5827-25.5827l0-105.35C660.555 641.895 649.101 630.441 634.972 630.441ZM299.971 513.844c-14.1288 0-25.5827 11.4539-25.5827 25.5827l0 27.924c0 14.1288 11.4539 25.5827 25.5827 25.5827s25.5827-11.4539 25.5827-25.5827l0-27.924C325.554 525.298 314.1 513.844 299.971 513.844ZM634.972 513.844c-14.1298 0-25.5827 11.4539-25.5827 25.5827l0 27.924c0 14.1288 11.4528 25.5827 25.5827 25.5827s25.5827-11.4539 25.5827-25.5827l0-27.924C660.555 525.298 649.101 513.844 634.972 513.844ZM528.285 328.24699999999995L269.738 328.24699999999995c-14.1288 0-25.5827 11.4539-25.5827 25.5827 0 14.1288 11.4539 25.5827 25.5827 25.5827L528.285 379.413c14.1288 0 25.5827-11.4539 25.5827-25.5827C553.868 339.702 542.414 328.24699999999995 528.285 328.24699999999995ZM467.471 234.466l-197.733 0c-14.1288 0-25.5827 11.4539-25.5827 25.5827s11.4539 25.5827 25.5827 25.5827l197.733 0c14.1288 0 25.5827-11.4539 25.5827-25.5827S481.6 234.466 467.471 234.466Z"  horiz-adv-x="1024" />

    
    <glyph glyph-name="profit" unicode="&#58935;" d="M475.76 384.92c6.8275 9.29469 8.35632 19.4264 3.75963 30.1118-4.59362 10.408-13.6509 13.875-24.238 14.4296-2.78237 0.141216-5.56986 0.141216-8.35632 0.141216-22.5659 0-44.9917 0.1361-67.5577-0.141216-4.87401 0-6.2698 1.52882-6.12756 6.38338 0.276293 15.6811 0.557702 31.5035 0.138146 47.1847-0.138146 6.51948 1.94837 8.04728 8.2192 8.04728 26.0493-0.141216 51.9584 0 78.0056 0.691755 14.3468 0.418532 22.9845 10.5493 22.4278 24.7016-0.694825 17.7605-15.0467 31.5004-32.8758 31.5004-22.9845 0-45.969-0.137123-68.9524 0-2.36895 0-6.54711-1.11029-6.40487 2.08243 0.138146 7.90606-3.06787 16.0956 4.17816 23.4511 25.071 25.1171 49.4472 50.7887 74.1048 76.3223 3.2009 3.32984 6.40794 6.7968 8.91402 10.6854 9.33358 14.0132 2.64832 30.6675-13.9272 34.5519-11.7015 2.77521-21.0361-2.08448-29.1161-9.71322-22.9845-21.5089-45.969-43.0177-68.672-64.9452-3.90187-3.74837-5.56986-3.32984-9.05319 0.418532-19.2249 20.6769-38.8652 41.0755-58.2282 61.6102-7.38111 7.76996-15.8797 13.3214-26.606 15.4038-11.7015 2.21955-21.3124-3.33086-24.7947-14.708-4.17816-13.6028 2.09164-24.2841 10.8675-33.8602 20.8928-22.8965 41.6486-46.2105 63.2413-68.4111 7.93779-8.18952 11.4211-16.5141 10.3057-27.619-0.418532-4.85354-1.53394-6.24217-6.40794-6.24217-24.3762 0.277316-48.7513-0.141216-73.1326 0.277316-7.79964 0.137123-13.2313-2.77521-17.8291-8.60703-3.48333-4.44013-5.85126-9.43488-7.66149-14.708-6.54609-19.844 3.30937-37.3057 24.3813-37.3057 25.508 0 49.1699 3.864 73.8234 4.14132 3.90187 0.1361 6.68833 0 6.55018-5.27207-0.280386-17.0687-0.280386-34.2787-0.14224-51.3464 0-4.02159-1.3917-5.1329-5.29356-5.1329-13.5076 0.277316-26.8823 0.1361-40.395 0.1361l-38.0261 0c-15.6044-0.1361-27.444-11.5183-27.3059-26.3675 0.14224-15.8172 11.9829-27.6129 27.7203-27.6129 25.4947 0 51.1234 0 76.6139 0.140193 4.46059 0 6.12858-1.10926 5.99043-5.82773-0.13917-8.60703 0-17.21 0.695848-25.6758 1.39579-17.0647 13.0932-26.9181 30.5078-26.5036 15.5993 0.418532 27.5822 12.6286 27.8585 28.8644 0.138146 7.21533 0.418532 14.4317-0.418532 21.5099-0.696872 6.52358 1.39477 7.91016 7.52335 7.76996 25.3524-0.276293 50.5667 0 75.9191-0.137123C464.339 375.34400000000005 470.885 378.256 475.76 384.92ZM700.913 432.058c-142.567 0-258.716-111.156-258.716-247.864 0-136.628 116.145-247.864 258.716-247.864 142.745 0 258.804 111.237 258.804 247.864C959.717 320.90200000000004 843.658 432.058 700.913 432.058ZM700.958 12.596000000000003c-98.703 0-179.139 77.0529-179.139 171.597 0 94.6251 80.437 171.597 179.139 171.597 98.7869 0 179.144-76.9721 179.144-171.597C880.101 89.649 799.745 12.596000000000003 700.958 12.596000000000003ZM438.219 69.79200000000003L183.758 69.79200000000003c-7.53153 0-40.131 27.1227-40.131 36.7213L143.627 715.179c6.88992 17.8158 21.8107 32.3273 39.8107 41.0121 0 0 538.377 2.11722 555.653 0 17.2765-2.12234 41.4879-31.4523 41.4879-41.0121l0-254.035 10.9299-2.18169c21.6286-6.27184 42.896-15.2452 68.6853-26.7042L860.194 736.435c0 52.8671-33.6555 95.236-87.5408 95.236L161.956 831.6709c-53.8883 0-97.6736-42.7363-97.6736-95.236l0-659.286c0-52.5437 43.2306-83.6195 97.6736-83.6195l319.467 0c-15.7743 23.3232-29.3576 44.0584-40.3899 66.7165L438.219 69.79200000000003ZM575.063 622.123c-18.3591 0-33.2145-12.8333-33.2145-28.5963 0-15.7231 14.8553-28.5533 33.2145-28.5533l112.564 0c18.3602 0 33.3086 12.8302 33.3086 28.5533 0 15.763-14.9444 28.5963-33.3086 28.5963L575.063 622.123ZM669.375 93.21900000000005c-6.38134 0-12.7924 2.33621-17.6438 7.02397l-52.9234 50.6659c-9.77155 9.31106-9.77155 24.4232 0 33.7834 4.86889 4.66116 11.2349 6.9769 17.6449 6.9769 6.35985 0 12.7422-2.31574 17.6387-6.9769l35.2826-33.7834 102.836 98.4431c4.84536 4.66628 11.2564 7.00248 17.6449 7.00248 6.40385 0 12.7637-2.33621 17.6377-7.00248 9.75006-9.34892 9.75006-24.4447 0-33.7742l-120.474-115.336C682.146 95.55600000000004 675.736 93.21900000000005 669.375 93.21900000000005L669.375 93.21900000000005 669.375 93.21900000000005 669.375 93.21900000000005 669.375 93.21900000000005ZM349.408 241.125L236.827 241.125c-18.355 0-33.2544-12.8374-33.2544-28.6137 0-15.6934 14.8993-28.5359 33.2544-28.5359l112.581 0c18.355 0 33.2503 12.8425 33.2503 28.5359C382.658 228.28200000000004 367.763 241.125 349.408 241.125Z"  horiz-adv-x="1024" />

    
    <glyph glyph-name="import" unicode="&#58916;" d="M518.4 172.8c-38.4 0-64 19.2-76.8 51.2 0 6.4 0 12.8 6.4 19.2 6.4 0 12.8 0 19.2-6.4 6.4-19.2 25.6-32 51.2-32s57.6 25.6 57.6 57.6v51.2c0 6.4 0 19.2 6.4 19.2h51.2c6.4 0 12.8 0 19.2 6.4 0 6.4 0 12.8-6.4 25.6l-108.8 140.8c-12.8 19.2-38.4 19.2-51.2 0l-108.8-147.2c-6.4-6.4-12.8-19.2-6.4-25.6 0-6.4 6.4-6.4 19.2-6.4h70.4c6.4 0 12.8-6.4 12.8-12.8s-6.4-12.8-12.8-12.8h-70.4c-19.2 0-38.4 6.4-44.8 25.6-6.4 19.2-6.4 38.4 12.8 51.2l108.8 147.2c12.8 19.2 32 25.6 51.2 25.6 19.2 0 38.4-12.8 51.2-25.6l108.8-140.8c12.8-19.2 19.2-38.4 6.4-51.2-6.4-12.8-25.6-25.6-44.8-25.6h-32v-38.4c0-57.6-44.8-96-89.6-96zM448 262.4c-6.4 0-6.4 0-12.8 6.4 0 0-6.4 6.4-6.4 12.8s0 6.4 6.4 12.8 12.8 6.4 19.2 0c0 0 6.4-6.4 6.4-12.8s0-6.4-6.4-12.8c0-6.4 0-6.4-6.4-6.4zM512-83.2c-256 0-467.2 211.2-467.2 467.2s211.2 467.2 467.2 467.2 467.2-211.2 467.2-467.2-211.2-467.2-467.2-467.2z m0 876.8c-224 0-409.6-185.6-409.6-409.6s185.6-409.6 409.6-409.6 409.6 185.6 409.6 409.6-185.6 409.6-409.6 409.6zM857.6 371.2c-6.4 0-12.8 6.4-12.8 12.8 0 147.2-102.4 281.6-243.2 320-6.4 0-12.8 12.8-12.8 19.2 0 6.4 12.8 12.8 19.2 12.8 160-44.8 268.8-185.6 268.8-352 0-6.4-6.4-12.8-19.2-12.8zM531.2 716.8h-19.2c-6.4 0-12.8 6.4-12.8 12.8s6.4 12.8 12.8 12.8h19.2c6.4 0 12.8-6.4 12.8-12.8s-6.4-12.8-12.8-12.8z"  horiz-adv-x="1024" />

    
    <glyph glyph-name="command" unicode="&#59209;" d="M64 784v-800h896V784H64Zm846-750H114V734h796v-700ZM234.6 207.20000000000004L411.3 384 234.6 560.8l35.4 35.4L482.1 384 269.9 171.89999999999998l-35.3 35.3Zm554.8 10.2h-300v50h300v-50Z"  horiz-adv-x="1024" />

    
    <glyph glyph-name="server" unicode="&#59044;" d="M960 853.3333H64c-12.8 0-21.3333-8.53333-21.3333-21.3333v-896c0-12.8 8.53333-21.3333 21.3333-21.3333h896c12.8 0 21.3333 8.53333 21.3333 21.3333V832c0 12.8-8.53333 21.3333-21.3333 21.3333Zm-21.3333-896H85.3333V213.33299999999997h853.333v-256Zm0 298.667H85.3333V512h853.333v-256Zm0 298.667H85.3333V810.6667h853.333v-256ZM298.667 128h-42.6667v-85.3333h42.6667v85.3333Zm-85.3333 0H170.667v-85.3333h42.6667v85.3333Zm661.333-21.3333h-170.667v-42.6667h170.667v42.6667ZM298.667 426.667h-42.6667v-85.3333h42.6667v85.3333Zm-85.3333 0H170.667v-85.3333h42.6667v85.3333Zm661.333-21.3333h-170.667v-42.6667h170.667v42.6667ZM298.667 725.333h-42.6667v-85.3333h42.6667V725.333Zm-85.3333 0H170.667v-85.3333h42.6667V725.333Zm661.333-21.3333h-170.667v-42.6667h170.667V704Z"  horiz-adv-x="1024" />

    
    <glyph glyph-name="SIM" unicode="&#58888;" d="M930 736H226.8c-25.1 0-48.7-9.8-66.5-27.5L27.5 575.7C9.8 558 0 534.3 0 509.2V126c0-51.8 42.2-94 94-94h836c51.8 0 94 42.2 94 94V642c0 51.8-42.2 94-94 94z m34-610c0-18.7-15.3-34-34-34H94c-18.7 0-34 15.3-34 34V509.2c0 9.1 3.5 17.6 10 24L202.7 666c6.4 6.4 15 10 24 10H930c18.7 0 34-15.3 34-34v-516zM290 420H158c-16.5 0-30-13.5-30-30s13.5-30 30-30h132c16.5 0 30 13.5 30 30s-13.5 30-30 30zM290 320H158c-16.5 0-30-13.5-30-30s13.5-30 30-30h132c16.5 0 30 13.5 30 30s-13.5 30-30 30zM290 220H158c-16.5 0-30-13.5-30-30s13.5-30 30-30h132c16.5 0 30 13.5 30 30s-13.5 30-30 30zM806 608H546c-51.8 0-94-42.2-94-94v-260c0-51.8 42.2-94 94-94h260c51.8 0 94 42.2 94 94V514c0 51.8-42.2 94-94 94z m-162.3-60h64v-63h-64v63z m-60-232v-96H546c-18.7 0-34 15.3-34 34v67h72.1c-0.2-1.6-0.4-3.3-0.4-5z m124 0v-96h-64v96c0 1.7-0.2 3.4-0.4 5h64.9c-0.3-1.6-0.5-3.3-0.5-5zM840 254c0-18.7-15.3-34-34-34h-38.3v96c0 1.7-0.2 3.4-0.4 5H840v-67z m0 127H512V514c0 18.7 15.3 34 34 34h37.7v-93c0-16.5 13.5-30 30-30h226.2v-44z m0 104h-72.3v63H806c18.7 0 34-15.3 34-34v-29z"  horiz-adv-x="1024" />

    
    <glyph glyph-name="close" unicode="&#58949;" d="M512 844.8C258.048 844.8 51.2 637.952 51.2 384s206.848-460.8 460.8-460.8 460.8 206.848 460.8 460.8S765.952 844.8 512 844.8Zm181.248-612.352c8.192-8.192 8.192-20.48 0-28.672-4.096-4.096-9.216-6.144-14.336-6.144s-10.24 2.048-14.336 6.144L512 355.328 360.448 202.75199999999995c-4.096-4.096-9.216-6.144-14.336-6.144s-10.24 2.048-14.336 6.144c-8.192 8.192-8.192 20.48 0 28.672L483.328 384 330.752 535.552c-8.192 8.192-8.192 20.48 0 28.672s20.48 8.192 28.672 0L512 412.672l151.552 151.552c8.192 8.192 20.48 8.192 28.672 0s8.192-20.48 0-28.672L540.672 384l152.576-151.552Z"  horiz-adv-x="1024" />

    
    <glyph glyph-name="down1" unicode="&#58926;" d="M179.2 815.616h1280a102.4 102.4 0 0 0 77.1072-169.7792L973.312 2.4576a204.8 204.8 0 0 0-308.224 0L102.0928 645.8368A102.4 102.4 0 0 0 179.2 815.616z"  horiz-adv-x="1638" />

    
    <glyph glyph-name="left1" unicode="&#59539;" d="M1233.85 975.97l0-1200a96 96 0 0 0-159.168-72.2879L471.563 231.515a192 192 0 0 0 0 288.961L1074.7 1048.262A96 96 0 0 0 1233.85 975.97Z"  horiz-adv-x="1638" />

    
    <glyph glyph-name="right1" unicode="&#59540;" d="M408.81-207.97000000000003l0 1200a96 96 0 0 0 159.168 72.2879L1171.07 536.485a192 192 0 0 0 0-288.961L567.96-280.26A96 96 0 0 0 408.81-207.97000000000003Z"  horiz-adv-x="1638" />

    
    <glyph glyph-name="up1" unicode="&#59538;" d="M1463.39-47.613000000000056l-1280 0a102.4 102.4 0 0 0-77.1072 169.779L669.344 765.544a204.8 204.8 0 0 0 308.224 0L1540.49 122.16300000000001A102.4 102.4 0 0 0 1463.39-47.613000000000056Z"  horiz-adv-x="1638" />

    
    <glyph glyph-name="right" unicode="&#59375;" d="M351.999 32c0 8.20001 3.10002 16.4 9.39998 22.6L690.7 384l-329.4 329.4c-12.5 12.5-12.5 32.8 0 45.2999s32.8 12.5 45.2999 0l352-352c12.5-12.5 12.5-32.8 0-45.2999l-352-352c-12.5-12.5-32.8-12.5-45.2999 0-6.2 6.2-9.29997 14.4-9.3 22.6Z"  horiz-adv-x="1024" />

    
    <glyph glyph-name="up" unicode="&#59376;" d="M864 223.99900000000002c-8.20001 0-16.4 3.10002-22.6 9.39998L512 562.7l-329.4-329.4c-12.5-12.5-32.8-12.5-45.2999 0s-12.5 32.8 0 45.2999l352 352c12.5 12.5 32.8 12.5 45.2999 0l352-352c12.5-12.5 12.5-32.8 0-45.2999-6.2-6.2-14.4-9.29996-22.6-9.3Z"  horiz-adv-x="1024" />

    
    <glyph glyph-name="down" unicode="&#59377;" d="M160 544.001c8.20001 0 16.4-3.10002 22.6-9.39998L512 205.29999999999995l329.4 329.4c12.5 12.5 32.8 12.5 45.2999 0s12.5-32.8 0-45.2999l-352-352c-12.5-12.5-32.8-12.5-45.2999 0l-352 352c-12.5 12.5-12.5 32.8 0 45.2999 6.2 6.2 14.4 9.29996 22.6 9.3Z"  horiz-adv-x="1024" />

    
    <glyph glyph-name="left" unicode="&#59374;" d="M672 736c0-8.2-3.1-16.4-9.4-22.6L333.3 384l329.4-329.4c12.5-12.5 12.5-32.8 0-45.3s-32.8-12.5-45.3 0l-352 352c-12.5 12.5-12.5 32.8 0 45.3l352 352c12.5 12.5 32.8 12.5 45.3 0 6.2-6.2 9.3-14.4 9.3-22.6z"  horiz-adv-x="1024" />

    
    <glyph glyph-name="switch-on" unicode="&#59355;" d="M764 644L260 644C116.4 644 0 527.6 0 384s116.4-260 260-260l504 0c143.601 0 260 116.4 260 260S907.6 644 764 644Zm0-484c-123.7 0-224 100.3-224 224s100.3 224 224 224 224-100.3 224-224-100.3-224-224-224Z"  horiz-adv-x="1024" />

    
    <glyph glyph-name="chart" unicode="&#58910;" d="M768-128H256a42.666667 42.666667 0 0 0 0 85.333333h213.333333v213.333334H128a128 128 0 0 0-128 128V768a128 128 0 0 0 128 128h768a128 128 0 0 0 128-128v-469.333333a128 128 0 0 0-128-128h-341.333333v-213.333334h213.333333a42.666667 42.666667 0 0 0 0-85.333333z m-256 384h384a42.666667 42.666667 0 0 1 42.666667 42.666667V768a42.666667 42.666667 0 0 1-42.666667 42.666667H128a42.666667 42.666667 0 0 1-42.666667-42.666667v-469.333333a42.666667 42.666667 0 0 1 42.666667-42.666667h63.573333l156.586667 235.52a42.666667 42.666667 0 0 0 52.48 15.36l138.666667-60.586667 119.04 132.266667A128 128 0 1 0 768 516.266667a125.44 125.44 0 0 0-42.666667 7.68l-141.653333-157.44a42.666667 42.666667 0 0 0-48.64-10.666667l-135.68 58.453333L293.973333 256z m256 430.933333a42.666667 42.666667 0 1 1 42.666667-42.666666 42.666667 42.666667 0 0 1-42.666667 42.666666z"  horiz-adv-x="1024" />

    
    <glyph glyph-name="email" unicode="&#58947;" d="M938.667 42.66700000000003L85.3333 42.66700000000003c-47.0613 0-85.3333 38.272-85.3333 85.3333L0 640c0 47.0613 38.272 85.3333 85.3333 85.3333l853.333 0c47.0613 0 85.3333-38.272 85.3333-85.3333l0-512C1024 80.93899999999996 985.728 42.66700000000003 938.667 42.66700000000003ZM85.3333 682.667c-23.5307 0-42.6667-19.136-42.6667-42.6667l0-512c0-23.5307 19.136-42.6667 42.6667-42.6667l853.333 0c23.5307 0 42.6667 19.136 42.6667 42.6667L981.333 640c0 23.5307-19.136 42.6667-42.6667 42.6667L85.3333 682.667ZM512 273.259L137.749 515.413c-9.89867 6.42133-12.736 19.6053-6.336 29.504s19.6053 12.7147 29.504 6.336L512 324.07500000000004 863.083 551.2529999999999c9.89867 6.37867 23.104 3.56267 29.504-6.336s3.56267-23.0827-6.336-29.504L512 273.259ZM128.021 170.66700000000003c-6.89067 0-13.6747 3.328-17.7707 9.49333-6.54933 9.81333-3.904 23.04 5.90933 29.5893l192 128c9.81333 6.54933 23.0613 3.904 29.5893-5.90933 6.54933-9.81333 3.904-23.04-5.90933-29.5893l-192-128C136.192 171.84000000000003 132.075 170.66700000000003 128.021 170.66700000000003ZM895.979 170.66700000000003c-4.05333 0-8.17067 1.17333-11.8187 3.584l-192 128c-9.81333 6.54933-12.4587 19.776-5.90933 29.5893 6.528 9.81333 19.7547 12.4587 29.5893 5.90933l192-128c9.81333-6.54933 12.4587-19.776 5.90933-29.5893C909.653 173.995 902.869 170.66700000000003 895.979 170.66700000000003Z"  horiz-adv-x="1024" />

    
    </font>
</defs>
</svg>
