<?xml version="1.0" encoding="utf-8"?>
<!-- Generator: Adobe Illustrator 15.0.0, SVG Export Plug-In . SVG Version: 6.00 Build 0)  -->
<!DOCTYPE svg PUBLIC "-//W3C//DTD SVG 1.1//EN" "http://www.w3.org/Graphics/SVG/1.1/DTD/svg11.dtd">
<svg version="1.1" id="图层_1" xmlns="http://www.w3.org/2000/svg" xmlns:xlink="http://www.w3.org/1999/xlink" x="0px" y="0px"
	 width="55.42px" height="56.419px" viewBox="392.935 269.202 55.42 56.419" enable-background="new 392.935 269.202 55.42 56.419"
	 xml:space="preserve">
<path d="M422.085,269.202c0.185,0,0.369,0,0.555,0c1.72,0.497,2.355,2.076,3.77,2.882c1.95,0.011,3.338-0.208,4.543,0.443
	c3.254,1.758,1.838,9.634,1.887,13.633c0.428,0.611,1.146,0.424,1.552,0.887c0.844,0.963,0.917,4.299,0.44,5.764
	c-0.466,1.438-2.162,1.507-3.103,2.55c-0.425,0.472-0.476,1.311-0.776,1.884c-0.824,1.577-2.479,3.227-3.547,4.323
	c0.191,2.016-0.406,3.797,0.11,5.432c1.169,3.693,6.305,3.568,10.198,4.545c3.438,0.861,7.521,2.801,9.088,5.541
	c1.021,1.787,1.01,4.217,1.553,7.205c0,0.443,0,0.887,0,1.33c-18.473,0-36.946,0-55.42,0c0-0.777,0-1.553,0-2.328
	c0.011-5.043,1.557-7.451,4.545-9.422c1.524-1.006,3.215-1.65,4.875-2.105c3.835-1.051,8.3-0.969,10.531-3.547
	c1.349-1.561,1.155-3.873,0.995-6.873c-1.921-1.551-3.809-3.135-4.653-5.763c-0.662-0.471-1.903-0.594-2.438-1.773
	c-0.73-1.609-0.855-5.721-0.111-6.761c0.501-0.7,1.397-0.24,1.551-1.108c-0.062-7.011-0.718-14.014,5.433-14.852
	c0.599-0.081,1.262,0.168,2.104,0c0.565-0.113,1.059-0.811,1.773-0.998C419.055,269.694,420.683,269.823,422.085,269.202z"/>
</svg>
