<?xml version="1.0" encoding="utf-8"?>
<!-- Generator: Adobe Illustrator 15.0.0, SVG Export Plug-In . SVG Version: 6.00 Build 0)  -->
<!DOCTYPE svg PUBLIC "-//W3C//DTD SVG 1.1//EN" "http://www.w3.org/Graphics/SVG/1.1/DTD/svg11.dtd">
<svg version="1.1" id="图层_1" xmlns="http://www.w3.org/2000/svg" xmlns:xlink="http://www.w3.org/1999/xlink" x="0px" y="0px"
	 width="56.338px" height="56.376px" viewBox="359.508 253.049 56.338 56.376"
	 enable-background="new 359.508 253.049 56.338 56.376" xml:space="preserve">
<g>
	<path d="M387.648,253.049c-15.574,0-28.199,12.625-28.199,28.199s12.625,28.197,28.199,28.197
		c15.572,0,28.197-12.623,28.197-28.197S403.22,253.049,387.648,253.049z M389.834,304.616v-6.651h-4.373v6.651
		c-11.53-1.065-20.646-10.47-21.252-22.128h5.775v-4.371h-5.595c1.438-10.773,10.172-19.233,21.071-20.24v4.762h4.373v-4.762
		c10.899,1.007,19.635,9.467,21.072,20.24h-5.596v4.371h5.776C410.48,294.146,401.364,303.551,389.834,304.616z"/>
	<path fill-rule="evenodd" clip-rule="evenodd" d="M400.666,275.332c1.354,0.229,3.346-0.464,3.943,0.402
		c0.421,0.609,0.309,2.132-0.241,2.496c-0.681,0.447-1.515,0-2.495,0.159c0.84,2.771,0.643,6.905,0.643,10.626
		c0,1.204,0.212,2.465-0.321,3.379c-1.307,0.258-3.746,0.275-4.829,0c-0.463-0.69-0.151-2.155-0.24-3.219
		c-6.891,0.6-11.996,0.615-18.879,0c-0.28,0.9,0.197,2.559-0.322,3.219c-0.633,0.258-1.549,0.161-2.494,0.161
		c-0.74,0-1.875,0.229-2.334-0.161c-0.558-0.47-0.322-2.35-0.322-3.46c0-3.622-0.174-8.12,0.643-10.464
		c-0.923-0.348-1.743,0.253-2.494-0.24c-0.594-0.392-0.65-2.033-0.162-2.578c0.658-0.732,2.695-0.18,3.863-0.24
		c0.762-1.035,1.518-2.219,2.414-3.381c1.335-1.724,2.133-3.127,4.91-3.461c2.176-0.263,3.688,0,6.262,0
		c2.787,0,3.807-0.305,6.178,0.08c1.928,0.313,3.17,2.455,4.186,3.783C399.315,273.406,399.949,274.416,400.666,275.332z
		 M381.867,270.582c-1.621,0.233-2.384,1.71-3.299,2.898c-0.633,0.82-1.94,2.161-1.771,2.978c0.218,1.048,4.199,0.644,5.875,0.644
		c4.77,0,5.52,0,10.267,0c1.692,0,5.524,0.482,5.714-0.805c0.049-0.323-0.518-1.122-0.803-1.528
		c-0.855-1.214-2.34-3.556-3.623-4.024c-1.508-0.554-2.123,0.08-4.006-0.162c-0.096,1.703-2.756,0.839-4.348,1.047
		c-0.436-0.153-0.469-0.71-0.725-1.047C383.601,270.75,383.414,270.359,381.867,270.582z M391.892,280.725
		c0.572,0.602,0.742,1.813,1.771,2.173c0.851,0.299,2.289,0.081,3.462,0.081c1.237,0,2.55,0.209,3.299-0.322
		c0.168-0.662,0.082-1.738-0.322-2.094c-2.497-0.185-5.338-0.028-7.968-0.08C392.017,280.527,391.936,280.608,391.892,280.725z
		 M375.185,280.644c-0.404,0.362-0.549,1.604-0.24,2.174c1.861,0.366,4.395,0.061,6.52,0.161c0.855-0.541,1.51-1.281,1.852-2.335
		C380.791,280.508,377.713,280.513,375.185,280.644z"/>
</g>
</svg>
