<?xml version="1.0" encoding="utf-8"?>
<!-- Generator: Adobe Illustrator 15.0.0, SVG Export Plug-In . SVG Version: 6.00 Build 0)  -->
<!DOCTYPE svg PUBLIC "-//W3C//DTD SVG 1.1//EN" "http://www.w3.org/Graphics/SVG/1.1/DTD/svg11.dtd">
<svg version="1.1" id="图层_1" xmlns="http://www.w3.org/2000/svg" xmlns:xlink="http://www.w3.org/1999/xlink" x="0px" y="0px"
	 width="54.837px" height="55.804px" viewBox="393.666 269.202 54.837 55.804"
	 enable-background="new 393.666 269.202 54.837 55.804" xml:space="preserve">
<g>
	<path d="M443.577,275.481c-0.664-1.133-2.437-1.582-3.975-2.066c-4.635-1.461-8.868-2.828-13.273-4.213c-0.423,0-0.847,0-1.271,0
		c-4.439,1.404-8.885,2.836-13.509,4.293c-1.731,0.545-3.411,0.998-3.974,2.384c-0.671,1.651-0.239,4.17-0.239,6.121
		c0,2.184-0.041,4.221,0.08,6.278c0.608,10.306,6.785,14.091,13.035,18.599c1.242,0.898,2.447,1.941,3.655,2.623
		c0.384,0.216,0.925,0.289,1.112,0.398c0.316,0,0.637,0,0.954,0c2.195-0.946,4.157-2.644,6.198-4.136
		c1.973-1.44,4.078-2.729,5.883-4.448c2.766-2.64,4.754-6.071,5.482-10.572c0.337-2.085,0.317-5.006,0.317-7.71
		C444.055,281,444.538,277.125,443.577,275.481z M432.252,293.955c0.84,0,1.521,0.681,1.521,1.52c0,0.841-0.682,1.522-1.521,1.522
		h-4.569v0.803c0,1.081-0.876,1.958-1.956,1.958c-1.081,0-1.959-0.877-1.959-1.958v-0.803h-4.643c-0.84,0-1.521-0.682-1.521-1.522
		c0-0.839,0.683-1.52,1.521-1.52h4.643v-1.961h-4.643c-0.84,0-1.521-0.682-1.521-1.521c0-0.841,0.683-1.521,1.521-1.521h4.643
		v-1.382l-5.326-5.327c-0.664-0.665-0.664-1.741,0-2.405s1.74-0.664,2.405,0l4.891,4.891l4.892-4.891
		c0.663-0.664,1.739-0.664,2.403,0s0.664,1.74,0,2.405l-5.337,5.337c-0.003,0.029-0.008,0.059-0.013,0.088v1.284h4.569
		c0.84,0,1.521,0.681,1.521,1.521c0,0.839-0.682,1.521-1.521,1.521h-4.569v1.961H432.252z"/>
	<path d="M398.803,323.953c-1.574-4.045-3.359-7.879-5.137-11.721c4.378-2.32,7.22-6.818,14.486-6.453
		c4.965,0.248,8.279,2.633,12.644,3.951c1.928,0.581,4.398,1.147,6.718,1.579c2.425,0.451,5.563,0.63,5.795,2.502
		c0.256,2.074-2.231,3.044-4.479,2.898c-2.865-0.186-6.464-1.348-9.352-1.582c-2.255-0.182-4.86-0.143-5.927,1.449
		c1.189,0.647,2.268-0.312,3.949-0.396c3.799-0.194,8.521,1.773,11.983,1.713c3.354-0.061,6.548-3.045,4.083-6.061
		c3.429-1.094,6.612-6.537,10.404-7.506c0.872-0.224,1.101,0.324,1.976,0.526c1.014,0.234,2.152-0.288,2.503,1.054
		c0.488,1.875-2.573,5.065-3.293,6.059c-1.548,2.144-2.765,4.379-4.607,5.664c-1.667,1.158-4.391,2.281-6.98,3.688
		c-2.536,1.377-4.909,2.899-6.848,3.688c-1.126,0.455-3.24,0.646-4.873,0.525c-4.306-0.316-8.787-2.689-13.17-3.556
		C404.695,321.189,401.815,322.716,398.803,323.953z"/>
</g>
</svg>
