<?xml version="1.0" encoding="utf-8"?>
<!-- Generator: Adobe Illustrator 15.0.0, SVG Export Plug-In . SVG Version: 6.00 Build 0)  -->
<!DOCTYPE svg PUBLIC "-//W3C//DTD SVG 1.1//EN" "http://www.w3.org/Graphics/SVG/1.1/DTD/svg11.dtd">
<svg version="1.1" id="图层_1" xmlns="http://www.w3.org/2000/svg" xmlns:xlink="http://www.w3.org/1999/xlink" x="0px" y="0px"
	 width="70.167px" height="56.424px" viewBox="385.613 269.198 70.167 56.424"
	 enable-background="new 385.613 269.198 70.167 56.424" xml:space="preserve">
<g>
	<rect x="408.63" y="280.809" width="7.27" height="3.523"/>
	<g>
		<path d="M414.026,289.949h2.586c0.5-0.99,1.246-1.84,2.188-2.424h-4.772L414.026,289.949L414.026,289.949z"/>
		<path d="M416.158,294.484c-0.114-0.409-0.188-0.819-0.216-1.23h-1.146C415.254,293.684,415.706,294.084,416.158,294.484z"/>
		<path d="M414.026,300.074c0.041-0.019,0.076-0.043,0.118-0.062c0.709-0.285,1.676-0.467,2.423-0.938
			c-0.863-0.775-1.712-1.578-2.541-2.407V300.074L414.026,300.074z"/>
		<path d="M416.563,312.339c-0.729-0.506-1.574-0.684-2.567-1.129c-3.756-1.686-4.198-5.963-2.521-8.813h-1.082v-5.839
			c-1.54,1.981-3.341,3.743-5.396,5.284c-1.029-1.102-1.946-1.871-2.754-2.311c2.643-1.617,4.883-3.708,6.719-6.279h-6.168v-3.306
			h7.599v-2.313h-5.285v-10.022h14.318v9.587c1.253-0.574,2.763-0.722,4.424-0.177c2.05,0.674,3.347,1.488,4.581,0.353
			c0.574-0.528,0.176-1.124,0.645-2.292c0.289-0.72,0.711-1.322,1.209-1.832c0.352-1.481,0.626-3.131,0.273-4.008
			c-0.453-1.129-1.617-1.273-2.48-1.432c-6.963-1.277-12.346-3.678-16.501-7.343c-0.593-0.524-1.52-1.439-2.861-1.242
			c-1.269,0.188-1.988,1.188-2.479,1.622c-3.416,3.02-7.755,5.004-13.067,6.296c-2.396,0.583-4.83,0.32-5.532,2.194
			c-0.534,1.427,0.372,4.179,0.859,6.2c2.772,11.51,7.475,22.773,15.643,29.188c1.182,0.927,3.242,2.574,4.96,2.574
			c1.694,0,3.593-1.592,4.865-2.574C414.966,313.951,415.8,313.146,416.563,312.339z M402.022,284.221
			c-0.147,0.149-0.22,0.259-0.22,0.33v17.955h-3.638v-13.877c-0.146,0.222-0.367,0.514-0.66,0.882
			c-0.295,0.365-0.517,0.66-0.661,0.879c-0.661-0.879-1.541-1.613-2.645-2.203c2.717-2.716,4.809-6.461,6.277-11.234
			c1.104,0.295,2.055,0.625,2.863,0.991c0.661,0.295,0.698,0.625,0.109,0.993l-0.22,0.219c-0.661,1.69-1.285,3.084-1.873,4.186
			C402.167,283.415,402.389,283.707,402.022,284.221z"/>
	</g>
	<path d="M454.691,304.447c0,0.78,0,1.561,0,2.34c-0.89,2.313-2.373,4.029-5.787,3.815c-0.302,0.313-0.281,0.951-0.615,1.23
		c0.941,1.492,2.027,2.336,2.095,4.188c0.177,4.938-6.579,6.954-9.234,3.075c-0.404,0.254-0.93,0.386-1.354,0.617
		c0.021,3.428-1.586,5.228-4.311,5.908c-0.493,0-0.983,0-1.478,0c-1.886-0.498-3.286-1.465-3.94-3.201
		c-0.347-0.918,0.025-2.26-0.738-2.955c-0.658-0.6-1.045-0.172-1.846,0.494c-0.654,0.543-1.486,0.969-2.094,1.107
		c-4.634,1.049-7.168-3.105-6.033-6.523c0.376-1.137,2.403-2.563,1.477-3.572c-0.693-0.754-2.164-0.272-3.201-0.735
		c-4.243-1.906-3.375-7.836,0.123-9.234c0.731-0.293,2.461-0.072,3.078-0.74c0.616-0.664,0.134-1.17-0.492-1.969
		c-3.011-3.851,0.414-9.646,5.418-8.002c1.689,0.554,2.554,2.413,3.568,1.478c0.475-0.437,0.354-2.113,0.738-3.078
		c1.602-3.992,7.811-4.1,9.357,0.123c0.291,0.794,0.135,1.647,0.614,2.832c1.015,0.777,1.475,0.142,2.095-0.37
		c3.551-2.936,9.32,0.136,8.125,5.049c-0.395,1.613-2.491,2.341-1.602,4.062C451.934,300.664,453.909,301.859,454.691,304.447z
		 M424.772,304.203c-0.63,5.613,2.641,9.287,6.033,10.709c7.431,3.123,15.93-3.609,13.667-11.941
		c-1.235-4.547-5.729-7.753-10.466-7.264C429.241,296.199,425.3,299.523,424.772,304.203z"/>
</g>
</svg>
