<?xml version="1.0" encoding="utf-8"?>
<!-- Generator: Adobe Illustrator 15.0.0, SVG Export Plug-In . SVG Version: 6.00 Build 0)  -->
<!DOCTYPE svg PUBLIC "-//W3C//DTD SVG 1.1//EN" "http://www.w3.org/Graphics/SVG/1.1/DTD/svg11.dtd">
<svg version="1.1" id="图层_1" xmlns="http://www.w3.org/2000/svg" xmlns:xlink="http://www.w3.org/1999/xlink" x="0px" y="0px"
	 width="79.207px" height="56.324px" viewBox="0 0 79.207 56.324" enable-background="new 0 0 79.207 56.324" xml:space="preserve">
<g>
	<path d="M33.684,56.269c0.049-1.15,0.14-2.318,0.287-3.438c-1.1-0.988-1.146-2.141-1.048-4.629c-3.259,0-6.521,0-9.776,0
		c-0.152,0.051-0.25,0.154-0.244,0.363c0.238,3.484-0.327,4.049-2.565,5.137c-0.651,0.314-2.874,0.754-2.812,1.713
		c0.076,1.23,3.125,0.854,4.766,0.854c4.563,0,6.909,0,11.245,0C33.582,56.265,33.635,56.269,33.684,56.269z"/>
	<path d="M58.99,12.903c0.145,0,0.283,0,0.43,0c1.322,0.382,1.813,1.599,2.895,2.218c1.504,0.008,2.572-0.158,3.5,0.342
		c2.506,1.352,1.412,7.414,1.451,10.494c0.326,0.467,0.881,0.324,1.191,0.68c0.648,0.742,0.707,3.312,0.342,4.437
		c-0.359,1.104-1.666,1.158-2.391,1.963c-0.324,0.363-0.365,1.008-0.596,1.451c-0.637,1.211-1.912,2.479-2.729,3.322
		c0.145,1.553-0.314,2.926,0.086,4.184c0.895,2.842,4.852,2.748,7.848,3.496c2.646,0.66,5.791,2.152,6.994,4.268
		C78.795,51.13,78.783,53,79.205,55.3c0,0.342,0,0.68,0,1.021c-14.217,0-28.436,0-42.65,0c0-0.598,0-1.195,0-1.789
		c0.008-3.885,1.196-5.734,3.496-7.25c1.176-0.777,2.475-1.271,3.754-1.623c2.952-0.811,6.389-0.742,8.104-2.73
		c1.036-1.199,0.892-2.979,0.769-5.287c-1.479-1.193-2.931-2.414-3.582-4.434c-0.51-0.365-1.464-0.461-1.877-1.367
		c-0.563-1.236-0.658-4.402-0.087-5.205c0.388-0.536,1.077-0.182,1.193-0.851c-0.048-5.396-0.554-10.784,4.181-11.432
		c0.46-0.062,0.973,0.132,1.623,0c0.434-0.085,0.813-0.622,1.361-0.765C56.66,13.282,57.91,13.383,58.99,12.903z"/>
	<path d="M41.133,44.226c4.854-1.898,4.752-0.709,7.059-2.387c1.568-1.143,1.232-2.002,1.382-3.521
		c-0.851-0.688-1.688-1.385-2.429-2.186H3.637V9.164c0-2.74,2.221-4.961,4.961-4.961h39.836c2.739,0,4.961,2.223,4.961,4.961v0.951
		c0.301-0.223,0.619-0.48,1.008-0.583c0.861-0.226,1.76-0.269,2.629-0.399V5.5c0-3.039-2.465-5.5-5.504-5.5H5.503
		C2.464,0,0.001,2.461,0.001,5.5v34.939c0,3.039,2.463,5.504,5.502,5.504h31.81C38.57,45.191,39.792,44.748,41.133,44.226z
		 M27.911,43.294c-1.474,0-2.667-1.193-2.667-2.67c0-1.475,1.193-2.666,2.667-2.666c1.478,0,2.67,1.191,2.67,2.666
		C30.581,42.101,29.387,43.294,27.911,43.294z"/>
</g>
</svg>
