<?xml version="1.0" encoding="utf-8"?>
<!-- Generator: Adobe Illustrator 15.0.0, SVG Export Plug-In . SVG Version: 6.00 Build 0)  -->
<!DOCTYPE svg PUBLIC "-//W3C//DTD SVG 1.1//EN" "http://www.w3.org/Graphics/SVG/1.1/DTD/svg11.dtd">
<svg version="1.1" id="图层_1" xmlns="http://www.w3.org/2000/svg" xmlns:xlink="http://www.w3.org/1999/xlink" x="0px" y="0px"
	 width="55.663px" height="56.397px" viewBox="393.293 269.202 55.663 56.397"
	 enable-background="new 393.293 269.202 55.663 56.397" xml:space="preserve">
<g>
	<path d="M420.191,269.282c3.843-0.639,7.028,2.621,6.042,6.506c-1.253,4.933-8.995,4.834-10.223,0
		C415.26,272.837,417.149,269.789,420.191,269.282z"/>
	<path d="M429.602,289.728c-4.703-0.069-12.186,0.152-17.076-0.117c-0.797-4.362,0.994-7.755,3.95-8.364
		c2.108,1.842,7.474,1.469,9.294,0C428.924,282.124,430.277,285.407,429.602,289.728z"/>
	<path d="M409.97,290.772c-2.373,2.35-4.579,4.868-5.575,8.597c-0.954-0.313-2.542-0.519-3.718-0.232
		c1.282-5.727,4.643-9.374,8.597-12.429C409.885,287.683,409.098,290.057,409.97,290.772z"/>
	<path d="M432.621,286.707c4.453,2.673,7.407,6.843,9.062,12.312c-1,0.033-2.883-0.092-3.832,0.353
		c-1.021-3.666-3.035-6.336-5.576-8.48C432.932,290.039,432.495,288.091,432.621,286.707z"/>
	<path d="M422.865,294.49c0.412,0.789,0.29,2.111,0.465,3.137c0.227,0.355,0.871,0.289,1.16,0.582
		c1.564-1.039,2.301-2.659,4.066-0.93c0.324,0.318,1.03,0.959,1.045,1.395c0.045,1.228-1.654,1.729-1.975,2.672
		c0.135,0.408,0.458,0.627,0.464,1.162c1.211,0.185,2.845-0.057,3.483,0.695c-0.21,0.836-0.081,2.01-0.113,3.021
		c-0.596,0.726-2.172,0.463-3.254,0.697c-0.453,0.127-0.341,0.822-0.696,1.045c0.56,0.988,1.493,1.604,1.976,2.672
		c-0.662,0.828-1.406,2.402-2.438,2.439c-1.063,0.037-1.576-1.396-2.559-1.857c-0.439,0.062-0.643,0.361-1.16,0.349
		c-0.281,0.957-0.061,2.418-0.465,3.252c-0.637,0.539-2.688,0.461-3.484,0.116c-0.469-0.692-0.398-1.924-0.464-3.021
		c-0.151-0.428-0.729-0.432-1.047-0.695c-1.242,0.271-1.655,1.896-2.787,1.857c-1.037-0.033-1.659-1.596-2.439-2.322
		c0.362-1.146,1.334-1.686,1.857-2.672c0.048-0.553-0.396-0.611-0.348-1.162c-1.086-0.152-2.424-0.055-3.254-0.465
		c-0.356-0.783-0.356-2.703,0-3.484c0.788-0.414,2.111-0.291,3.137-0.465c0.346-0.197,0.332-0.754,0.582-1.047
		c-0.166-1.07-1.845-1.461-1.857-2.67c-0.012-0.87,1.667-2.402,2.322-2.438c1.24-0.07,1.592,1.477,2.671,1.858
		c0.442-0.101,0.738-0.347,1.163-0.465c0.185-1.13-0.005-2.636,0.58-3.369C420.427,294.229,422.106,294.1,422.865,294.49z
		 M420.773,309.476c2.041,0.123,4.92-1.077,5.11-4.416c0.187-3.231-2.472-5.42-5.459-4.991
		C414.653,300.886,415.439,309.15,420.773,309.476z"/>
	<path d="M420.425,301.925c4.952-1.102,4.552,7.154-0.349,5.574C417.894,306.796,417.443,302.589,420.425,301.925z"/>
	<path d="M401.605,302.041c6.459-0.525,7.313,8.711,1.858,10.223c-4.021,1.117-8.166-2.649-6.388-7.086
		C397.647,303.751,399.102,302.244,401.605,302.041z"/>
	<path d="M439.94,302.041c2.923-0.203,4.638,1.664,5.229,3.137c1.516,3.783-1.437,7.23-4.766,7.318
		c-3.012,0.08-6.144-2.273-5.227-6.506C435.622,303.935,437.139,302.234,439.94,302.041z"/>
	<path d="M406.601,313.888c3.066,1.043,4.663,4.162,3.95,8.601c-5.422,0.19-11.654,0.19-17.076,0
		c-0.772-4.375,0.979-7.853,3.948-8.48C399.48,315.847,404.666,315.818,406.601,313.888z"/>
	<path d="M444.936,313.888c3.024,1.045,4.582,4.168,3.834,8.601c-5.423,0.19-11.654,0.19-17.076,0
		c-0.775-4.386,1.079-7.748,3.95-8.48C437.793,315.804,442.925,315.832,444.936,313.888z"/>
	<path d="M413.688,320.279c0.099-0.021,0.109,0.045,0.116,0.114c1.529,0.595,3.44,1.347,5.575,1.511
		c3.563,0.274,7.123-0.656,9.408-1.511c-0.021,1.416-0.098,2.888,0.467,3.72c-4.23,1.944-11.938,2.016-16.148,0
		C413.74,323.308,413.466,321.125,413.688,320.279z"/>
</g>
</svg>
