<?xml version="1.0" encoding="utf-8"?>
<!-- Generator: Adobe Illustrator 15.0.0, SVG Export Plug-In . SVG Version: 6.00 Build 0)  -->
<!DOCTYPE svg PUBLIC "-//W3C//DTD SVG 1.1//EN" "http://www.w3.org/Graphics/SVG/1.1/DTD/svg11.dtd">
<svg version="1.1" id="图层_1" xmlns="http://www.w3.org/2000/svg" xmlns:xlink="http://www.w3.org/1999/xlink" x="0px" y="0px"
	 width="56.439px" height="56.439px" viewBox="392.802 269.202 56.439 56.439"
	 enable-background="new 392.802 269.202 56.439 56.439" xml:space="preserve">
<path d="M421.022,269.202c-15.586,0-28.22,12.635-28.22,28.221s12.634,28.219,28.22,28.219c15.585,0,28.22-12.635,28.22-28.219
	C449.241,281.838,436.607,269.202,421.022,269.202z M431.772,304.64c1.376,0,2.492,1.113,2.492,2.49
	c0,1.375-1.116,2.492-2.492,2.492h-7.484v1.316c0,1.77-1.436,3.204-3.204,3.204c-1.771,0-3.208-1.436-3.208-3.204v-1.316h-7.604
	c-1.375,0-2.492-1.117-2.492-2.492c0-1.377,1.117-2.49,2.492-2.49h7.604v-3.213h-7.604c-1.375,0-2.492-1.114-2.492-2.489
	c0-1.375,1.117-2.493,2.492-2.493h7.604v-2.263l-8.726-8.727c-1.088-1.088-1.088-2.852,0-3.94c1.088-1.087,2.852-1.087,3.938,0
	l8.012,8.011l8.011-8.011c1.087-1.087,2.854-1.087,3.939,0c1.087,1.088,1.087,2.852,0,3.94l-8.742,8.743
	c-0.005,0.048-0.015,0.096-0.021,0.144v2.103h7.484c1.376,0,2.492,1.116,2.492,2.493c0,1.375-1.116,2.489-2.492,2.489h-7.484v3.213
	H431.772L431.772,304.64z"/>
</svg>
