<?xml version="1.0" encoding="utf-8"?>
<!-- Generator: Adobe Illustrator 15.0.0, SVG Export Plug-In . SVG Version: 6.00 Build 0)  -->
<!DOCTYPE svg PUBLIC "-//W3C//DTD SVG 1.1//EN" "http://www.w3.org/Graphics/SVG/1.1/DTD/svg11.dtd">
<svg version="1.1" id="图层_1" xmlns="http://www.w3.org/2000/svg" xmlns:xlink="http://www.w3.org/1999/xlink" x="0px" y="0px"
	 width="70.633px" height="56.373px" viewBox="385.135 269.203 70.633 56.373"
	 enable-background="new 385.135 269.203 70.633 56.373" xml:space="preserve">
<g>
	<g>
		<path d="M415.292,316.519c0.462-1.396,1.706-2.772,0.565-4.012c-0.854-0.928-1.411-0.713-2.686-1.283
			c-5.215-2.342-4.146-9.629,0.15-11.346c0.261-0.104,0.629-0.154,1.032-0.195c0.029-0.924,0.185-1.907,0.083-2.967
			c0.908-0.931,2.313-2.333,3.017-3.674c0.255-0.487,0.299-1.201,0.659-1.602c0.799-0.887,2.242-0.945,2.639-2.167
			c0.403-1.246,0.342-4.082-0.376-4.9c-0.346-0.394-0.956-0.234-1.318-0.754c-0.04-3.399,1.165-10.096-1.603-11.59
			c-1.023-0.553-2.204-0.367-3.861-0.376c-1.201-0.685-1.742-2.027-3.204-2.45c-0.157,0-0.314,0-0.473,0
			c-1.19,0.528-2.574,0.418-3.863,0.754c-0.608,0.159-1.027,0.752-1.509,0.848c-0.717,0.143-1.281-0.069-1.79,0
			c-5.229,0.712-4.669,6.666-4.617,12.626c-0.13,0.738-0.894,0.347-1.318,0.942c-0.633,0.884-0.525,4.38,0.096,5.748
			c0.454,1.003,1.51,1.107,2.071,1.508c0.721,2.234,2.324,3.58,3.957,4.899c0.137,2.55,0.301,4.519-0.847,5.843
			c-1.896,2.19-5.692,2.121-8.953,3.016c-1.412,0.39-2.85,0.937-4.146,1.791c-2.541,1.676-3.854,3.724-3.863,8.01
			c0,0.658,0,1.316,0,1.979c9.994,0,19.991,0,29.986,0C415.17,316.947,415.221,316.73,415.292,316.519z"/>
	</g>
	<path d="M455.768,304.386c0,0.781,0,1.563,0,2.342c-0.891,2.314-2.376,4.031-5.793,3.818c-0.302,0.314-0.281,0.951-0.615,1.232
		c0.941,1.491,2.029,2.338,2.094,4.188c0.18,4.945-6.584,6.961-9.24,3.08c-0.403,0.252-0.932,0.385-1.354,0.615
		c0.022,3.432-1.587,5.229-4.313,5.914c-0.493,0-0.985,0-1.479,0c-1.884-0.498-3.288-1.465-3.94-3.203
		c-0.349-0.92,0.023-2.262-0.74-2.957c-0.66-0.6-1.045-0.174-1.848,0.494c-0.653,0.543-1.486,0.971-2.096,1.106
		c-4.637,1.052-7.174-3.106-6.038-6.528c0.377-1.14,2.405-2.564,1.479-3.574c-0.696-0.754-2.167-0.273-3.204-0.738
		c-4.248-1.908-3.376-7.842,0.122-9.24c0.732-0.293,2.463-0.069,3.082-0.739c0.616-0.666,0.134-1.17-0.493-1.972
		c-3.014-3.854,0.414-9.652,5.422-8.009c1.692,0.555,2.557,2.415,3.572,1.479c0.475-0.436,0.352-2.113,0.739-3.081
		c1.601-3.994,7.813-4.103,9.364,0.123c0.291,0.795,0.134,1.649,0.615,2.834c1.014,0.778,1.474,0.143,2.095-0.37
		c3.555-2.938,9.329,0.135,8.132,5.052c-0.395,1.613-2.493,2.343-1.601,4.066C453.008,300.599,454.984,301.796,455.768,304.386z
		 M425.823,304.14c-0.63,5.619,2.645,9.293,6.037,10.722c7.438,3.125,15.942-3.611,13.678-11.951
		c-1.234-4.553-5.73-7.76-10.474-7.271C430.298,296.131,426.352,299.458,425.823,304.14z"/>
</g>
</svg>
