<?xml version="1.0" encoding="utf-8"?>
<!-- Generator: Adobe Illustrator 15.0.0, SVG Export Plug-In . SVG Version: 6.00 Build 0)  -->
<!DOCTYPE svg PUBLIC "-//W3C//DTD SVG 1.1//EN" "http://www.w3.org/Graphics/SVG/1.1/DTD/svg11.dtd">
<svg version="1.1" id="图层_1" xmlns="http://www.w3.org/2000/svg" xmlns:xlink="http://www.w3.org/1999/xlink" x="0px" y="0px"
	 width="56.42px" height="56.417px" viewBox="1.457 0 56.42 56.417" enable-background="new 1.457 0 56.42 56.417"
	 xml:space="preserve">
<g>
	<path d="M15.235,14.17c-2.595-1.125-4.919-2.515-7.216-3.938c3.367-4.196,7.795-7.335,13.646-9.052
		C18.584,4.574,16.591,9.055,15.235,14.17z"/>
	<path d="M37.668,1.312c5.65,1.348,10.33,4.802,13.646,8.921c-2.253,1.423-4.606,2.742-7.084,3.938
		C42.609,9.321,40.941,4.515,37.668,1.312z"/>
	<path d="M14.579,16.662c-0.519,3.245-0.916,6.606-1.05,10.233c-4.023,0-8.046,0-12.07,0c0.316-6.155,2.313-10.633,4.854-14.563
		C8.931,13.912,11.444,15.599,14.579,16.662z"/>
	<path d="M28.355,19.418c0,2.493,0,4.985,0,7.479c-4.023,0-8.047,0-12.07,0c-0.021-3.391,0.434-6.302,0.918-9.185
		C20.597,18.603,24.083,19.404,28.355,19.418z"/>
	<path d="M41.87,17.711c1.021,2.435,1.056,5.854,1.18,9.185c-4.021,0-8.046,0-12.066,0c0-2.493,0-4.985,0-7.479
		C35.129,19.371,38.667,18.708,41.87,17.711z"/>
	<path d="M13.53,29.52c0.137,3.082,0.456,6.933,1.049,9.976c-2.772,1.508-5.726,2.846-8.269,4.592
		c-2.527-3.94-4.547-8.396-4.854-14.565C5.483,29.52,9.503,29.52,13.53,29.52z"/>
	<path d="M28.355,29.52c0,2.493,0,4.985,0,7.479c-4.281,0.004-7.711,0.857-11.152,1.707c-0.512-2.856-0.926-5.813-0.918-9.188
		C20.308,29.52,24.331,29.52,28.355,29.52z"/>
	<path d="M43.047,29.52c0.009,3.375-0.405,6.33-0.918,9.188c-3.416-0.871-6.881-1.69-11.151-1.707c0-2.492,0-4.983,0-7.48
		C35.002,29.52,39.027,29.52,43.047,29.52z"/>
	<path d="M41.473,41.329c-1.799,6.729-4.147,12.902-10.495,15.088c0.09-5.555-0.176-11.459,0.133-16.795
		C34.982,39.775,38.321,40.462,41.473,41.329z"/>
	<path d="M44.097,42.378c2.771,0.906,4.905,2.441,7.219,3.806c-3.28,4.196-7.774,7.186-13.386,9.053
		c-0.138-0.478,0.497-0.813,0.788-1.181C41.1,51.066,42.886,46.648,44.097,42.378z"/>
	<path d="M25.25,10.01c0-1.975,1.311-3.643,3.104-4.186c0-1.941,0-3.884,0-5.824c-0.088,0-0.176,0-0.264,0
		c-6.047,2.394-8.511,8.371-10.231,15.088c3.146,0.923,6.571,1.563,10.497,1.706c0-0.866,0-1.732,0-2.598
		C26.558,13.653,25.25,11.984,25.25,10.01z"/>
	<path d="M55.488,29.52c-0.563,1.772-2.216,3.06-4.172,3.06c-1.919,0-3.551-1.236-4.141-2.958c-0.306-0.211-0.718-0.289-1.373-0.103
		c-0.135,3.628-0.547,6.979-1.05,10.235c3.146,1.055,5.655,2.74,8.271,4.328c2.511-3.961,4.545-8.398,4.854-14.564
		C57.079,29.52,56.284,29.52,55.488,29.52z"/>
	<path d="M18.861,51.335c-2.372-0.047-4.281-1.983-4.281-4.369c0-1.135,0.434-2.166,1.141-2.944
		c-0.211-0.586-0.15-1.438-0.744-1.644c-2.479,1.152-4.902,2.355-6.955,3.937c3.427,4.012,7.774,7.098,13.384,8.922
		c0.159-0.529-0.82-1.154-1.313-1.836C19.623,52.753,19.269,51.952,18.861,51.335z"/>
	<path d="M30.98,0c0,1.951,0,3.901,0,5.852c1.752,0.571,3.018,2.218,3.018,4.159c0,1.942-1.266,3.585-3.015,4.157
		c0,0.001-0.001,0.001-0.002,0.003c0,0.875,0,1.75,0,2.624c3.925-0.143,7.352-0.782,10.493-1.706C39.68,8.353,37.336,2.169,30.98,0z
		"/>
	<path d="M51.316,23.829c1.96,0,3.616,1.29,4.176,3.066c0.795,0,1.59,0,2.385,0c-0.354-6.163-2.271-10.762-4.983-14.563
		c-2.469,1.687-5.075,3.231-8.137,4.329c0.485,3.276,0.938,6.587,1.051,10.233c0.444,0,0.894,0,1.336,0
		C47.697,25.119,49.357,23.829,51.316,23.829z"/>
	<path d="M17.859,41.329c0.027,0.512,0.146,0.932,0.273,1.34c0.267-0.051,0.537-0.078,0.817-0.078c2.415,0,4.374,1.959,4.374,4.375
		c0,1.521-0.775,2.857-1.953,3.644c0.287,0.469,1.096,1.432,1.34,1.739c1.57,2.005,3.127,3.408,5.645,4.068
		c0-5.602,0-11.197,0-16.795C24.416,39.751,21.019,40.421,17.859,41.329z"/>
</g>
</svg>
