<svg version="1.1" x="0" y="0" width="100%" height="100%" viewBox="0 0 45.9 47.2" xmlns="http://www.w3.org/2000/svg" xmlns:xlink="http://www.w3.org/1999/xlink">
  <style type="text/css">.st1{stroke:#010101;stroke-opacity:1;stroke-width:0.25;stroke-linecap:butt;stroke-linejoin:miter;fill:none;}
.st2{stroke:#010101;stroke-opacity:1;stroke-width:0.25;stroke-linecap:butt;stroke-linejoin:miter;fill:none;}
.st3{stroke:#010101;stroke-opacity:1;stroke-width:0.25;stroke-linecap:butt;stroke-linejoin:miter;fill:none;}
.st4{stroke:#010101;stroke-opacity:1;stroke-width:0.25;stroke-linecap:butt;stroke-linejoin:miter;fill:none;}
.st5{stroke:#010101;stroke-opacity:1;stroke-width:0.25;stroke-linecap:butt;stroke-linejoin:miter;fill:none;}
.st6{stroke:#010101;stroke-opacity:1;stroke-width:0.25;stroke-linecap:butt;stroke-linejoin:miter;fill:none;}
.st7{stroke:#010101;stroke-opacity:1;stroke-width:0.25;stroke-linecap:butt;stroke-linejoin:miter;fill:none;}
.st8{stroke:#010101;stroke-opacity:1;stroke-width:0.25;stroke-linecap:butt;stroke-linejoin:miter;fill:none;}
.st9{stroke:#010101;stroke-opacity:1;stroke-width:0.25;stroke-linecap:butt;stroke-linejoin:miter;fill:none;}
.st10{stroke:#010101;stroke-opacity:1;stroke-width:0.25;stroke-linecap:butt;stroke-linejoin:miter;fill:none;}
.st11{stroke:#010101;stroke-opacity:1;stroke-width:0.25;stroke-linecap:butt;stroke-linejoin:miter;fill:none;}
.st12{stroke:#010101;stroke-opacity:1;stroke-width:0.25;stroke-linecap:butt;stroke-linejoin:miter;fill:none;}
.st13{stroke:none;stroke-width:1;stroke-linecap:butt;stroke-linejoin:miter;fill:#fc7f59;fill-opacity:1;fill-rule:nonZero;}
.st14{stroke:none;stroke-width:1;stroke-linecap:butt;stroke-linejoin:miter;fill:#ffffff;fill-opacity:1;fill-rule:nonZero;}
.st15{stroke:none;stroke-width:1;stroke-linecap:butt;stroke-linejoin:miter;fill:#e8413d;fill-opacity:1;fill-rule:nonZero;}
.st16{stroke:#000000;stroke-opacity:1;stroke-width:2;stroke-linecap:round;stroke-linejoin:round;fill:none;}
.st17{stroke:#000000;stroke-opacity:1;stroke-width:2;stroke-linecap:round;stroke-linejoin:round;fill:none;}
.st18{stroke:#000000;stroke-opacity:1;stroke-width:2;stroke-linecap:round;stroke-linejoin:round;fill:none;}
.st19{stroke:none;stroke-width:1;stroke-linecap:butt;stroke-linejoin:miter;fill:#000000;fill-opacity:0.15;fill-rule:nonZero;}
.st20{stroke:none;stroke-width:1;stroke-linecap:butt;stroke-linejoin:miter;fill:#ffffff;fill-opacity:0.48999999999999994;fill-rule:nonZero;}
.st21{stroke:none;stroke-width:1;stroke-linecap:butt;stroke-linejoin:miter;fill:#ffffff;fill-opacity:0.48999999999999994;fill-rule:nonZero;}</style>
  <defs/>
  <g id="guide_4_">
    <g id="guide_8_">
      <path class="st1" id="矩形8" d="M -9.05 -8.400000000000006 C -9.05 -8.400000000000006 54.949999999999996 -8.400000000000006 54.949999999999996 -8.400000000000006 C 54.949999999999996 -8.400000000000006 54.949999999999996 55.599999999999994 54.949999999999996 55.599999999999994 C 54.949999999999996 55.599999999999994 -9.05 55.599999999999994 -9.05 55.599999999999994 C -9.05 55.599999999999994 -9.05 -8.400000000000006 -9.05 -8.400000000000006  Z "/>
      <path class="st2" id="圆7" d="M 22.95 -8.400000000000006 C 40.62296 -8.400000000000006 54.949999999999996 5.9270399999999945 54.949999999999996 23.599999999999994 C 54.949999999999996 41.27296 40.62296 55.599999999999994 22.95 55.599999999999994 C 5.2770399999999995 55.599999999999994 -9.05 41.27296 -9.05 23.599999999999994 C -9.05 5.9270399999999945 5.2770399999999995 -8.400000000000006 22.95 -8.400000000000006  Z "/>
      <path class="st3" id="圆8" d="M 22.95 0.5999999999999943 C 35.65244 0.5999999999999943 45.949999999999996 10.897559999999995 45.949999999999996 23.599999999999994 C 45.949999999999996 36.30243999999999 35.65244 46.599999999999994 22.95 46.599999999999994 C 10.24756 46.599999999999994 -0.05000000000000071 36.30243999999999 -0.05000000000000071 23.599999999999994 C -0.05000000000000071 10.897559999999995 10.24756 0.5999999999999943 22.95 0.5999999999999943  Z "/>
      <path class="st4" id="线条5" d="M 54.949999999999996 55.599999999999994 C 54.949999999999996 55.599999999999994 -9.05 -8.400000000000006 -9.05 -8.400000000000006 "/>
      <path class="st5" id="线条6" d="M -9.05 55.599999999999994 C -9.05 55.599999999999994 54.949999999999996 -8.400000000000006 54.949999999999996 -8.400000000000006 "/>
      <path class="st6" id="矩形9" d="M 6.949999999999998 -8.400000000000006 C 6.949999999999998 -8.400000000000006 38.949999999999996 -8.400000000000006 38.949999999999996 -8.400000000000006 C 38.949999999999996 -8.400000000000006 38.949999999999996 55.599999999999994 38.949999999999996 55.599999999999994 C 38.949999999999996 55.599999999999994 6.949999999999998 55.599999999999994 6.949999999999998 55.599999999999994 C 6.949999999999998 55.599999999999994 6.949999999999998 -8.400000000000006 6.949999999999998 -8.400000000000006  Z "/>
      <path class="st7" id="线条7" d="M 22.95 55.599999999999994 C 22.95 55.599999999999994 22.95 -8.400000000000006 22.95 -8.400000000000006 "/>
      <path class="st8" id="矩形10" d="M -9.05 7.599999999999995 C -9.05 7.599999999999995 54.949999999999996 7.599999999999995 54.949999999999996 7.599999999999995 C 54.949999999999996 7.599999999999995 54.949999999999996 39.599999999999994 54.949999999999996 39.599999999999994 C 54.949999999999996 39.599999999999994 -9.05 39.599999999999994 -9.05 39.599999999999994 C -9.05 39.599999999999994 -9.05 7.599999999999995 -9.05 7.599999999999995  Z "/>
      <path class="st9" id="线条8" d="M -9.05 23.599999999999994 C -9.05 23.599999999999994 54.949999999999996 23.599999999999994 54.949999999999996 23.599999999999994 "/>
      <path class="st10" id="矩形11" d="M -0.05000000000000138 0.599999999999995 C -0.05000000000000138 0.599999999999995 45.949999999999996 0.599999999999995 45.949999999999996 0.599999999999995 C 45.949999999999996 0.599999999999995 45.949999999999996 46.599999999999994 45.949999999999996 46.599999999999994 C 45.949999999999996 46.599999999999994 -0.05000000000000138 46.599999999999994 -0.05000000000000138 46.599999999999994 C -0.05000000000000138 46.599999999999994 -0.05000000000000138 0.599999999999995 -0.05000000000000138 0.599999999999995  Z "/>
      <path class="st11" id="圆9" d="M 22.95 7.599999999999994 C 31.786479999999997 7.599999999999994 38.949999999999996 14.763519999999994 38.949999999999996 23.599999999999994 C 38.949999999999996 32.43647999999999 31.786479999999997 39.599999999999994 22.95 39.599999999999994 C 14.11352 39.599999999999994 6.949999999999999 32.43647999999999 6.949999999999999 23.599999999999994 C 6.949999999999999 14.763519999999994 14.11352 7.599999999999994 22.95 7.599999999999994  Z "/>
      <path class="st12" id="圆10" d="M 22.95 14.599999999999994 C 27.92052 14.599999999999994 31.95 18.629479999999994 31.95 23.599999999999994 C 31.95 28.570519999999995 27.92052 32.599999999999994 22.95 32.599999999999994 C 17.97948 32.599999999999994 13.95 28.570519999999995 13.95 23.599999999999994 C 13.95 18.629479999999994 17.97948 14.599999999999994 22.95 14.599999999999994  Z "/>
    </g>
  </g>
  <g id="组43">
    <g id="Color">
      <g id="组44">
        <path class="st13" id="路径197" d="M 6.649999999999999 2.899999999999995 C 6.649999999999999 2.899999999999995 6.849999999999999 45 6.849999999999999 45 C 6.849999999999999 45.8 6.149999999999999 46.5 5.349999999999999 46.5 C 5.349999999999999 46.5 3.949999999999999 46.5 3.949999999999999 46.5 C 3.1499999999999986 46.5 2.449999999999999 45.8 2.449999999999999 45 C 2.449999999999999 45 2.1499999999999986 2.999999999999995 2.1499999999999986 2.999999999999995 C 2.1499999999999986 2.099999999999995 2.8499999999999988 1.399999999999995 3.6499999999999986 1.399999999999995 C 3.6499999999999986 1.399999999999995 5.149999999999999 1.399999999999995 5.149999999999999 1.399999999999995 C 5.949999999999998 1.399999999999995 6.649999999999999 2.099999999999995 6.649999999999999 2.899999999999995  Z "/>
        <path class="st14" id="矩形12" d="M 6.712284788023679 3.7291530869901126 C 6.712284788023679 3.7291530869901126 45.91228478802368 3.583224695920939 45.91228478802368 3.583224695920939 C 45.91228478802368 3.583224695920939 46.02470921175555 33.783224695920936 46.02470921175555 33.783224695920936 C 46.02470921175555 33.783224695920936 6.824709211755542 33.92915308699011 6.824709211755542 33.92915308699011 C 6.824709211755542 33.92915308699011 6.712284788023679 3.7291530869901126 6.712284788023679 3.7291530869901126  Z "/>
        <path class="st15" id="圆11" d="M 25.65 11.099999999999994 C 29.51596 11.099999999999994 32.65 14.234039999999995 32.65 18.099999999999994 C 32.65 21.965959999999995 29.51596 25.099999999999994 25.65 25.099999999999994 C 21.784039999999997 25.099999999999994 18.65 21.965959999999995 18.65 18.099999999999994 C 18.65 14.234039999999995 21.784039999999997 11.099999999999994 25.65 11.099999999999994  Z "/>
      </g>
    </g>
    <g id="Line">
      <g id="组45">
        <path class="st16" id="路径198" d="M 6.649999999999999 2.899999999999995 C 6.649999999999999 2.899999999999995 6.849999999999999 45 6.849999999999999 45 C 6.849999999999999 45.8 6.149999999999999 46.5 5.349999999999999 46.5 C 5.349999999999999 46.5 3.949999999999999 46.5 3.949999999999999 46.5 C 3.1499999999999986 46.5 2.449999999999999 45.8 2.449999999999999 45 C 2.449999999999999 45 2.1499999999999986 2.999999999999995 2.1499999999999986 2.999999999999995 C 2.1499999999999986 2.099999999999995 2.8499999999999988 1.399999999999995 3.6499999999999986 1.399999999999995 C 3.6499999999999986 1.399999999999995 5.149999999999999 1.399999999999995 5.149999999999999 1.399999999999995 C 5.949999999999998 1.399999999999995 6.649999999999999 2.099999999999995 6.649999999999999 2.899999999999995  Z "/>
        <path class="st17" id="矩形13" d="M 6.712284788023679 3.7291530869901126 C 6.712284788023679 3.7291530869901126 45.91228478802368 3.583224695920939 45.91228478802368 3.583224695920939 C 45.91228478802368 3.583224695920939 46.02470921175555 33.783224695920936 46.02470921175555 33.783224695920936 C 46.02470921175555 33.783224695920936 6.824709211755542 33.92915308699011 6.824709211755542 33.92915308699011 C 6.824709211755542 33.92915308699011 6.712284788023679 3.7291530869901126 6.712284788023679 3.7291530869901126  Z "/>
        <path class="st18" id="圆12" d="M 25.65 11.099999999999994 C 29.51596 11.099999999999994 32.65 14.234039999999995 32.65 18.099999999999994 C 32.65 21.965959999999995 29.51596 25.099999999999994 25.65 25.099999999999994 C 21.784039999999997 25.099999999999994 18.65 21.965959999999995 18.65 18.099999999999994 C 18.65 14.234039999999995 21.784039999999997 11.099999999999994 25.65 11.099999999999994  Z "/>
      </g>
    </g>
    <g id="Shadow">
      <path class="st19" id="多边形2" d="M 46.05 33.8 C 46.05 33.8 6.749999999999998 34 6.749999999999998 34 C 6.749999999999998 34 6.749999999999998 34 6.749999999999998 34 C 6.749999999999998 34 42.05 33.8 42.05 33.8 C 42.05 33.8 41.85 3.599999999999995 41.85 3.599999999999995 C 41.85 3.599999999999995 45.85 3.599999999999995 45.85 3.599999999999995 C 45.85 3.599999999999995 46.05 33.8 46.05 33.8  Z "/>
    </g>
    <g id="Highlight">
      <path class="st20" id="路径199" d="M 4.449999999999998 34 C 4.449999999999998 34 4.449999999999998 45.099999999999994 4.449999999999998 45.099999999999994 C 4.449999999999998 45.39999999999999 4.349999999999998 45.7 4.349999999999998 45.89999999999999 C 4.249999999999998 46.3 3.9499999999999984 46.599999999999994 3.7499999999999982 46.599999999999994 C 3.7499999999999982 46.599999999999994 3.049999999999998 46.599999999999994 3.049999999999998 46.599999999999994 C 2.649999999999998 46.599999999999994 2.2499999999999982 45.89999999999999 2.2499999999999982 45.099999999999994 C 2.2499999999999982 45.099999999999994 2.1499999999999986 2.999999999999995 2.1499999999999986 2.999999999999995 C 2.1499999999999986 2.099999999999995 2.5499999999999985 1.399999999999995 2.9499999999999984 1.399999999999995 C 2.9499999999999984 1.399999999999995 3.6499999999999986 1.399999999999995 3.6499999999999986 1.399999999999995 C 3.9499999999999984 1.399999999999995 4.149999999999999 1.699999999999995 4.249999999999998 2.099999999999995 C 4.349999999999999 2.299999999999995 4.349999999999999 2.599999999999995 4.349999999999999 2.899999999999995 C 4.349999999999999 2.899999999999995 4.349999999999999 3.699999999999995 4.349999999999999 3.699999999999995 C 4.349999999999999 3.699999999999995 4.449999999999998 34 4.449999999999998 34  Z "/>
      <path class="st21" id="路径200" d="M 27.549999999999997 24.799999999999994 C 26.949999999999996 24.999999999999993 26.249999999999996 25.099999999999994 25.549999999999997 25.099999999999994 C 21.65 25.099999999999994 18.549999999999997 21.999999999999993 18.549999999999997 18.099999999999994 C 18.549999999999997 14.199999999999994 21.65 11.099999999999994 25.549999999999997 10.999999999999995 C 26.249999999999996 10.999999999999995 26.949999999999996 11.099999999999994 27.549999999999997 11.299999999999995 C 24.65 12.199999999999996 22.549999999999997 14.899999999999995 22.549999999999997 18.099999999999994 C 22.549999999999997 21.299999999999994 24.75 23.899999999999995 27.549999999999997 24.799999999999994  Z "/>
    </g>
  </g>
</svg>